<?xml version="1.0" standalone="no"?>
<!DOCTYPE svg PUBLIC "-//W3C//DTD SVG 1.1//EN" "http://www.w3.org/Graphics/SVG/1.1/DTD/svg11.dtd" >
<svg xmlns="http://www.w3.org/2000/svg">
<metadata></metadata>
<defs>
<font id="cooperheavy" horiz-adv-x="1228" >
<font-face units-per-em="2048" ascent="1638" descent="-410" />
<missing-glyph horiz-adv-x="569" />
<glyph horiz-adv-x="2048" />
<glyph horiz-adv-x="2048" />
<glyph unicode="&#xd;" horiz-adv-x="681" />
<glyph unicode=" "  horiz-adv-x="569" />
<glyph unicode="&#x09;" horiz-adv-x="569" />
<glyph unicode="&#xa0;" horiz-adv-x="569" />
<glyph unicode="!" horiz-adv-x="630" d="M82 1065q0 129 63.5 208t167.5 79q102 0 169 -82t67 -209q0 -131 -47 -266.5t-127 -235.5q-35 -41 -64 -41q-51 0 -139 184q-90 190 -90 363zM100 182q0 94 61.5 159t149.5 65q94 0 157.5 -61.5t63.5 -154.5q0 -90 -64.5 -153.5t-156.5 -63.5q-84 0 -147.5 62.5 t-63.5 146.5z" />
<glyph unicode="&#x22;" horiz-adv-x="1036" d="M166 1329q0 23 11 29t52 6h156q41 0 52.5 -6t11.5 -29q0 -16 -3 -35l-40 -428q-4 -51 -15.5 -61t-58.5 -10h-49q-47 0 -58.5 10t-15.5 61l-41 428q-2 18 -2 35zM588 1329q0 23 11 29t52 6h156q41 0 52 -6t11 -29q0 -16 -2 -35l-41 -428q-4 -51 -15 -61t-58 -10h-49 q-47 0 -58.5 10t-15.5 61l-41 428q-2 18 -2 35z" />
<glyph unicode="#" d="M94 469v88q0 35 19.5 48t68.5 13h60l28 -2q51 0 52 138q0 20 -48 20h-51q-72 0 -71 55v89q0 35 19 48t69 13h59q41 0 51 8t17 51l41 256q12 72 65 72h115q47 0 47 -45q0 -18 -2 -27l-43 -276q0 -4 -2 -10q-2 -8 -2 -11q0 -18 37 -18h77q29 0 36 6t12 33l43 276 q12 72 67 72h115q45 0 45 -45q0 -18 -2 -27l-41 -256q0 -8 -1 -17t-2 -13t-1 -7q0 -14 5 -18t28 -4h36q57 0 76 -15.5t19 -58.5v-76q0 -35 -16.5 -45t-74.5 -10h-55q-39 0 -48 -5t-13 -34q-2 -8 -8.5 -44t-6.5 -54q0 -12 6.5 -15.5t26.5 -3.5h37q57 0 76.5 -15t19.5 -58v-76 q0 -35 -17.5 -45t-74.5 -10h-55q-39 0 -48.5 -6.5t-13.5 -36.5l-49 -299q-8 -72 -65 -72h-115q-47 0 -47 47q0 2 1 10.5t1 14.5l49 299q0 4 1 9t1 9v4q0 20 -35 21h-80q-27 0 -33.5 -6.5t-13.5 -36.5l-47 -299q-8 -72 -65 -72h-115q-47 0 -47 47q0 2 1 10.5t1 14.5l47 299 q4 20 4 22q0 20 -47 21h-51q-72 0 -72 55zM528 637q0 -12 7.5 -15.5t29.5 -3.5h78q29 0 36 5.5t11 33.5q0 6 7.5 42t7.5 55q0 20 -35 20h-80q-27 0 -34 -5t-11 -34q-2 -8 -9.5 -44t-7.5 -54z" />
<glyph unicode="$" d="M68 334q0 41 18 66.5t47 25.5q35 0 64.5 -27.5t56.5 -67.5t61.5 -81t95 -68.5t140.5 -27.5q57 0 98 25.5t41 62.5q0 41 -33.5 61.5t-195.5 77.5q-176 63 -269.5 164.5t-93.5 232.5q0 92 38 166t93.5 115t108.5 67.5t96 39t45 14.5q6 5 6 34v48q0 41 13.5 53t52.5 12h84 q41 0 53 -12t12 -53v-48q0 -25 21 -45q18 -6 73.5 -18t69.5 -12q12 0 39 10t41 10q68 0 130.5 -96t62.5 -170q0 -57 -29 -89t-76 -32q-43 0 -98 48t-123 97.5t-139 49.5q-49 0 -78 -23.5t-29 -64.5q0 -51 37 -73t209 -73q182 -55 266 -145t84 -228q0 -158 -127 -278.5 t-291 -130.5q-29 -4 -36 -11.5t-7 -35.5v-47q0 -41 -12 -53.5t-53 -12.5h-84q-39 0 -52.5 12.5t-13.5 53.5v47q0 27 -5 35t-23 10q-102 14 -189.5 44t-111.5 58q-35 43 -61.5 128t-26.5 155z" />
<glyph unicode="%" horiz-adv-x="1660" d="M29 1014q0 158 112.5 259t296.5 111q147 0 263 -93t116 -236q0 -150 -124 -257.5t-298 -107.5q-162 0 -264 91t-102 233zM328 1155q0 -74 31.5 -182.5t91.5 -108.5q57 0 57 78q0 113 -36 201t-83 88q-27 0 -44 -20.5t-17 -55.5zM360 45q0 10 59.5 107.5t134.5 217.5 t79 128l303 512q104 176 162 297q27 51 50 68.5t66 17.5q94 0 95 -50q0 -20 -47.5 -100t-114 -183.5t-80.5 -125.5l-309 -524l-135 -242q-6 -10 -24.5 -51t-32 -62.5t-38 -43t-53.5 -21.5q-51 0 -83 15t-32 40zM844 311q0 160 113.5 261.5t297.5 111.5q147 0 263 -93 t116 -237q0 -150 -124 -257t-298 -107q-162 0 -265 91t-103 230zM1145 455q0 -74 32.5 -182.5t88.5 -108.5q59 0 59 78q0 111 -37 198.5t-84 87.5q-27 0 -43 -20.5t-16 -52.5z" />
<glyph unicode="&#x26;" horiz-adv-x="1779" d="M27 512q0 209 178 299q37 20 37 39q0 6 -36 82t-36 123q0 143 144.5 253.5t330.5 110.5q150 0 252 -54t102 -132q0 -45 -34.5 -80t-79.5 -35q-25 0 -41 10q-4 2 -26.5 17.5t-32 20.5t-28 15.5t-34.5 13.5t-33 3q-51 0 -84 -38t-33 -95q0 -63 33 -92t73 -30t72.5 -21.5 t32.5 -67.5q0 -125 -178 -149q-47 -6 -47 -91q0 -152 118 -276.5t267 -124.5q121 0 209 68.5t88 164.5q0 51 -37 85t-92 34q-41 0 -71.5 -22.5t-46 -50t-37 -50t-44.5 -22.5q-33 0 -58.5 42t-25.5 95q0 254 336 379q119 43 159 71.5t40 71.5q0 20 -14.5 35.5t-32.5 15.5 q-8 0 -24.5 -6t-24.5 -6q-18 0 -30.5 12.5t-12.5 30.5q0 72 91 115t159 43q135 0 220 -70.5t85 -181.5q0 -70 -30 -127t-73 -94t-87 -65.5t-73.5 -51t-29.5 -39.5q0 -10 22.5 -29.5t51 -41t51 -64.5t22.5 -94q0 -131 -109.5 -244t-296 -178.5t-403.5 -65.5q-293 0 -508 111 q-127 66 -208.5 186.5t-81.5 241.5z" />
<glyph unicode="'" horiz-adv-x="614" d="M166 1329q0 23 11 29t52 6h156q41 0 52.5 -6t11.5 -29q0 -16 -3 -35l-40 -428q-4 -51 -15.5 -61t-58.5 -10h-49q-47 0 -58.5 10t-15.5 61l-41 428q-2 18 -2 35z" />
<glyph unicode="(" horiz-adv-x="1019" d="M135 522q0 391 173 627.5t460 236.5q121 0 175 -24.5t54 -79.5q0 -98 -65 -98q-25 0 -39 4q-53 8 -82 8q-66 0 -115 -57.5t-74.5 -136t-41 -185t-19.5 -179.5t-4 -140q0 -90 8 -185.5t34 -224.5t86 -210t149 -81q16 0 30 2q18 0 23 2q31 2 41 2q72 0 71 -98 q0 -94 -200 -94q-287 0 -475.5 259t-188.5 652z" />
<glyph unicode=")" horiz-adv-x="1019" d="M20 -285q0 98 68 99q23 0 39 -2q66 -10 80 -11q68 0 118 58.5t75.5 137.5t40 186.5t17.5 177t3 139.5q0 90 -9.5 186t-34 224t-84 209t-147.5 81q-14 0 -47 -3t-47 -3q-72 0 -72 98q0 94 201 94q287 0 475.5 -259t188.5 -652q0 -391 -173 -627.5t-460 -236.5 q-231 0 -232 104z" />
<glyph unicode="*" d="M193 1020q0 23 16 72q0 2 4 13t6 17t6 16.5t8.5 16.5t10.5 12.5t14 9.5t16 3q19 -1 68 -17q6 -2 43 -17.5t64.5 -25.5t44 -10t16.5 26.5t-2 78t-2 77.5q0 59 17.5 76.5t80.5 17.5q82 0 101.5 -15t19.5 -79q0 -27 -3 -78t-3 -77.5t16 -26.5q18 0 152 53q49 16 69 17 q33 0 57.5 -66.5t24.5 -93.5q0 -41 -84 -66l-131 -36q-29 -8 -28 -23q0 -16 68.5 -96t68.5 -107q0 -29 -55.5 -74t-92.5 -45q-12 0 -28.5 13.5t-36 39t-31.5 44t-29.5 48.5t-19.5 32q-16 20 -24.5 20t-24.5 -20q-4 -6 -25.5 -42t-38 -61.5t-40 -49.5t-42.5 -24 q-33 0 -89 45.5t-56 73.5q0 23 39 72l84 108q12 12 12 23q0 14 -60.5 29.5t-120.5 39t-60 56.5z" />
<glyph unicode="+" d="M123 528v113q0 35 19.5 48t68.5 13h215q51 0 61 11q10 12 11 61v219q0 70 55 70h125q55 0 55 -70v-219q0 -51 10.5 -61.5t61.5 -10.5h213q51 0 70.5 -13t19.5 -48v-113q0 -35 -19.5 -48t-70.5 -13h-213q-51 0 -62 -10q-10 -12 -10 -62v-217q0 -72 -55 -72h-125 q-55 0 -55 72v217q0 51 -11 62q-12 10 -61 10h-215q-49 0 -68.5 13.5t-19.5 47.5z" />
<glyph unicode="," horiz-adv-x="614" d="M57 225q0 94 69 164t161 70q113 0 186.5 -92.5t73.5 -235.5q0 -76 -31 -186.5t-97.5 -207.5t-146.5 -97q-37 0 -66.5 20.5t-29.5 54.5q0 20 47 100.5t47 125.5q1 37 -32 49q-180 76 -181 235z" />
<glyph unicode="-" horiz-adv-x="581" d="M0 397q0 84 51 200t123 116q39 0 119 -8.5t121 -8.5q23 0 67.5 5.5t67.5 5.5q33 0 33 -45q0 -72 -45 -196t-105 -124q-43 0 -125 10t-125 10q-23 0 -69.5 -3t-69.5 -3q-43 0 -43 41z" />
<glyph unicode="." horiz-adv-x="614" d="M72 209q0 98 69.5 167.5t165.5 69.5t166 -69.5t70 -167.5q0 -96 -70 -166t-166 -70t-165.5 70t-69.5 166z" />
<glyph unicode="/" horiz-adv-x="966" d="M-84 -303q0 20 13.5 54t27.5 61.5t35.5 67.5t27.5 50l95 195l360 823q51 135 92 228q10 25 27.5 74.5t28 72.5t37 43t65.5 20q76 0 119 -21.5t43 -57.5q0 -33 -25 -80q-63 -117 -174 -359l-360 -819q-82 -190 -99 -235q-53 -143 -76.5 -173t-78.5 -30q-66 0 -112 25.5 t-46 60.5z" />
<glyph unicode="0" d="M51 571q0 258 147.5 421t383.5 163q250 0 423 -176t173 -430q0 -244 -164 -410t-403.5 -166t-399.5 171t-160 427zM477 696q0 -41 8.5 -105.5t24.5 -142t50 -132t79 -54.5q90 0 90 166q0 49 -7 112.5t-23.5 138.5t-51.5 126t-82 51q-88 0 -88 -160z" />
<glyph unicode="1" d="M82 117q0 33 25.5 55.5t62.5 22.5q18 0 51 -6.5t49 -6.5q63 0 82 52.5t23 228.5l2 282q0 57 -21.5 78t-81.5 21q-12 0 -36.5 -2t-36.5 -2q-33 0 -54.5 17t-21.5 44q0 82 160.5 142.5t317.5 82t249 21.5q162 0 162 -84q0 -29 -12.5 -43t-53.5 -33q-47 -20 -63.5 -51 t-18.5 -102q0 -37 -1 -111t-1 -111q0 -326 35 -383q16 -27 58 -38t80 -11t68 -17.5t30 -56.5q0 -41 -30 -64.5t-101 -37.5q-182 -33 -381 -33q-53 0 -126 5.5t-175.5 18.5t-171 45t-68.5 77z" />
<glyph unicode="2" d="M18 51q0 31 75 108t164 158.5t164 188t75 190.5q0 51 -29 81t-80 30q-57 0 -123.5 -56.5t-109.5 -56.5q-45 0 -86 34t-41 79q0 90 133 184q213 156 473 156q213 0 340 -83t127 -222q0 -84 -51.5 -168t-113 -137.5t-112.5 -103.5t-51 -77q0 -33 24.5 -52t63.5 -19 q57 0 102.5 29.5t77 58t52.5 28.5q92 0 92 -147q0 -106 -61.5 -227t-157.5 -121q-43 0 -76 51q-16 27 -35 35t-66 8h-679q-90 0 -91 51z" />
<glyph unicode="3" d="M-4 -47q0 45 30.5 74.5t77.5 29.5q25 0 50 -6q139 -29 180 -28q123 0 197.5 53t74.5 141q0 68 -58.5 113t-146.5 45q-31 0 -78 -10.5t-63 -10.5q-33 0 -57.5 60.5t-24.5 95.5q0 16 11.5 28.5t23.5 17.5t33.5 11t27.5 8q66 20 116 72.5t50 100.5q0 63 -44 103t-113 40 q-47 0 -107.5 -33t-81.5 -33q-33 0 -53.5 37t-20.5 72q0 53 59.5 96t144.5 67.5t162 37t124 12.5q225 0 356 -70.5t131 -193.5q0 -51 -22.5 -93t-50 -63.5t-50 -42t-22.5 -35.5q0 -23 51 -40t111.5 -35.5t112 -87t51.5 -181.5q0 -229 -204 -370.5t-534 -141.5 q-197 0 -320.5 44t-123.5 116z" />
<glyph unicode="4" d="M25 184q0 76 25.5 142.5t51 102.5t88.5 112q12 14 19 22l254 305q6 8 46 56.5t52 62.5t51 57t60.5 59.5t60.5 46.5t68.5 42t69.5 22.5t79 10.5q53 0 76 -24.5t23 -84.5v-690q0 -31 8 -43t30 -12h41q49 0 50 -58v-202q0 -53 -54 -60q-37 -2 -45 -11t-8 -44v-119 q0 -66 -57 -65h-342q-59 0 -60 41v24v105q0 41 -16 57t-55 16h-389q-70 0 -98.5 29t-28.5 100zM285 387q0 -37 104 -43h64l69 -2q63 0 81 13.5t20 64.5q6 113 6 227q0 90 -51 90q-37 0 -72 -41l-154 -190q-68 -84 -67 -119z" />
<glyph unicode="5" d="M63 438q0 94 66 290t127 327q20 47 44 62.5t73 15.5h710q41 0 54.5 -17.5t13.5 -66.5q0 -111 -48 -189t-118 -78h-453q-76 0 -75 -61q0 -25 17.5 -34t76.5 -15q285 -29 448.5 -138.5t163.5 -273.5q0 -199 -203.5 -336t-502.5 -137q-178 0 -278.5 41t-100.5 113 q0 47 16.5 80.5t38.5 33.5q16 0 96 -19.5t125 -19.5q86 0 137.5 37t51.5 97q0 70 -75 121t-208 71q-131 23 -164 38t-33 58z" />
<glyph unicode="6" d="M35 545q0 240 149 452q72 104 163 205t148.5 101t162 -40t104.5 -75q0 -20 -25 -49q-6 -6 -39.5 -43t-46 -53.5t-35 -48t-32 -60.5t-9.5 -60q0 -14 9.5 -24t21.5 -10q23 0 98.5 25.5t120.5 25.5q166 0 273.5 -111.5t107.5 -281.5q0 -96 -47 -198.5t-125 -178.5 q-154 -147 -399 -148q-250 0 -425 161t-175 411zM510 489q0 -80 54 -162.5t130 -82.5q37 0 61.5 25.5t24.5 64.5q0 104 -54 189t-122 85q-43 0 -68.5 -31.5t-25.5 -87.5z" />
<glyph unicode="7" d="M39 864q0 133 51 228.5t123 95.5q29 0 55 -12q16 -6 37 -15.5t29 -12.5t24.5 -7t35 -5t46.5 -1h643q96 0 97 -74q-1 -22 -9 -45l-407 -1231q-8 -25 -30.5 -34t-74.5 -9q-74 0 -188.5 26.5t-114.5 81.5q0 10 9 25l372 715q41 82 41 106q0 39 -45 53.5t-172 14.5 q-137 0 -191.5 -11.5t-78.5 -45.5q-27 -39 -49.5 -51.5t-61.5 -12.5q-68 0 -104.5 58.5t-36.5 162.5z" />
<glyph unicode="8" d="M20 367q0 70 41 128t82 90.5t41 41.5q0 4 -32.5 42t-66.5 100t-34 124q0 158 148.5 266.5t365.5 108.5q285 0 453 -86t168 -232q0 -55 -26.5 -99t-58.5 -65.5t-58.5 -42t-26.5 -34.5q0 -6 29.5 -32t65.5 -58.5t65.5 -93t29.5 -130.5q0 -84 -48 -170t-126 -145 q-147 -106 -370 -107q-287 0 -464.5 108.5t-177.5 285.5zM354 408q0 -92 76 -162t176 -70q55 0 92 26.5t37 67.5q0 51 -39 87t-143 81q-117 49 -150 49q-49 0 -49 -79zM539 1001q0 -49 76.5 -105t127.5 -56q27 0 47.5 34.5t20.5 79.5q0 57 -47 93t-123 36q-45 0 -73.5 -23.5 t-28.5 -58.5z" />
<glyph unicode="9" d="M25 682q0 221 166.5 343t398.5 122q274 0 437 -128t163 -343q0 -229 -143 -471q-72 -123 -221.5 -292t-235.5 -169q-45 0 -148.5 46t-103.5 87q0 25 31 43q82 53 142 125t60 150q0 39 -41 38q-14 0 -44.5 -4t-45.5 -4q-184 0 -299.5 134.5t-115.5 322.5zM494 737 q0 -102 49 -177t119 -75q41 0 66.5 30t25.5 77q0 104 -49.5 187t-110.5 83q-43 0 -71.5 -35.5t-28.5 -89.5z" />
<glyph unicode=":" horiz-adv-x="614" d="M72 207q0 102 67.5 170.5t168 68.5t168 -68.5t67.5 -170.5q0 -94 -70 -164t-166 -70t-165.5 69t-69.5 165zM72 784q0 102 67.5 171t168 69t168 -68.5t67.5 -171.5q0 -94 -70 -163.5t-166 -69.5t-165.5 68.5t-69.5 164.5z" />
<glyph unicode=";" horiz-adv-x="614" d="M55 225q0 94 69 164t161 70q113 0 186.5 -92.5t73.5 -235.5q0 -76 -31 -186.5t-97.5 -207.5t-146.5 -97q-37 0 -66.5 20.5t-29.5 54.5q0 20 47 100.5t47 125.5q1 37 -32 49q-180 76 -181 235zM68 784q0 102 67.5 171t167.5 69t168 -68.5t68 -171.5q0 -96 -70 -164.5 t-166 -68.5t-165.5 68.5t-69.5 164.5z" />
<glyph unicode="&#x3c;" horiz-adv-x="1024" d="M12 567v226l998 432v-224l-731 -319l731 -276v-224z" />
<glyph unicode="=" d="M137 358v105q0 35 19.5 48t68.5 13h774q55 0 75 -15t20 -56v-93q0 -35 -17.5 -46t-72.5 -11h-795q-72 0 -72 55zM137 700v105q0 35 19.5 48t68.5 13h774q55 0 75 -15t20 -58v-93q0 -35 -17.5 -45t-72.5 -10h-795q-72 0 -72 55z" />
<glyph unicode="&#x3e;" horiz-adv-x="1024" d="M12 182v224l731 319l-731 276v224l998 -383v-228z" />
<glyph unicode="?" horiz-adv-x="987" d="M14 995q0 154 137.5 261.5t333.5 107.5q199 0 340.5 -111.5t141.5 -267.5q0 -70 -40 -131t-110 -94l-92 -45q-49 -23 -79 -62t-40 -69.5t-42 -54t-89 -23.5q-61 0 -96 34.5t-35 94.5q0 82 84 211t84 209q0 45 -19.5 72.5t-50 27.5t-44 -19.5t-17.5 -72.5 q-10 -100 -68.5 -154.5t-152.5 -54.5q-63 0 -104.5 40t-41.5 101zM244 182q0 94 61.5 159t149.5 65q94 0 157.5 -61.5t63.5 -154.5q0 -90 -64.5 -153.5t-156.5 -63.5q-84 0 -147.5 62.5t-63.5 146.5z" />
<glyph unicode="@" horiz-adv-x="1607" d="M53 641q0 326 227.5 539t575.5 213q303 0 501.5 -165t198.5 -415q0 -213 -162.5 -362.5t-379.5 -149.5q-141 0 -154 84v16q-2 14 -5 22.5t-11 8.5q-2 0 -40 -31.5t-97.5 -63.5t-118.5 -32q-90 0 -142.5 64.5t-52.5 173.5q0 117 53.5 234.5t154.5 200.5t220 83 q39 0 89.5 -30t70.5 -30q14 0 77.5 30t104.5 30q76 0 76 -61.5t-46 -225.5t-46 -242q0 -51 53 -51q88 0 149.5 99.5t61.5 193.5q0 205 -153.5 338t-389.5 133q-276 0 -445 -166t-169 -438q0 -254 127 -367q180 -154 487 -153q119 0 211 38t153.5 74.5t106.5 36.5h21h20 q39 0 50.5 -4t11.5 -20q0 -10 -21 -31q-4 -4 -10 -12q-211 -229 -545 -230q-813 0 -813 668zM733 588q0 -47 27 -47q47 0 114 149q45 96 46 162q0 39 -23 39q-51 0 -107.5 -117t-56.5 -186z" />
<glyph unicode="A" horiz-adv-x="1693" d="M0 92q0 33 15.5 49.5t56.5 32.5q66 23 98.5 64t93.5 178l142 309q78 168 104.5 253t28.5 167q2 254 221 254q162 0 274 -160q117 -162 297 -547l191 -405q27 -57 44 -74.5t54 -24.5q74 -10 74 -69q0 -76 -87 -107.5t-288 -31.5q-219 0 -338 18q-47 10 -78 36.5t-31 61.5 t14.5 50.5t59.5 31.5q47 16 47 51q0 78 -108 84q-113 10 -203 11q-139 0 -176 -18.5t-37 -88.5q0 -18 19.5 -30.5t43 -18.5t43 -23.5t19.5 -46.5q0 -118 -284 -118h-5q-168 0 -236.5 25.5t-68.5 86.5zM590 592q0 -27 45 -27h196q53 0 54 23q0 43 -65.5 152.5t-96.5 109.5 q-37 0 -61 -68q-72 -135 -72 -190z" />
<glyph unicode="B" horiz-adv-x="1468" d="M27 94q0 41 39 70q55 37 69.5 71.5t22.5 110.5q2 12 2 21q26 281 26 578v22q0 121 -15 159.5t-73 63.5q-65 27 -65 80q0 47 39 74.5t100 27.5q47 0 140.5 -4t140.5 -4q68 0 205 4t206 4q461 0 461 -311q0 -84 -36 -147.5t-71.5 -98.5t-35.5 -49q0 -25 43 -41 q96 -41 156.5 -123t60.5 -176q0 -199 -142.5 -317.5t-379.5 -118.5q-89 0 -177 6l-161 6q-59 0 -200.5 -6t-217.5 -6q-61 0 -99 28.5t-38 75.5zM651 416q0 -133 19.5 -175t79.5 -42q150 0 149 176q0 223 -168 223q-45 0 -62.5 -18.5t-17.5 -69.5v-94zM651 881 q0 -49 12.5 -68.5t43.5 -19.5q76 0 110.5 45t34.5 141q0 199 -141 199q-33 0 -46.5 -21t-13.5 -70v-206z" />
<glyph unicode="C" horiz-adv-x="1474" d="M47 676q0 285 221 501t512 216q94 0 179 -23.5t139.5 -47.5t75.5 -24q14 1 30 5q47 10 56 10q74 0 130 -103.5t56 -236.5q0 -92 -51.5 -148.5t-134.5 -56.5q-43 0 -79 25.5t-58.5 64.5t-53.5 83t-63.5 83t-91 64.5t-132.5 25.5q-106 0 -166.5 -73.5t-60.5 -204.5 q0 -201 114.5 -352.5t309.5 -151.5q96 0 173 33.5t119 67.5t56 34q35 0 59.5 -34t24.5 -79q0 -80 -50 -167t-124 -99q-61 -12 -191.5 -63.5t-254.5 -51.5q-303 0 -523.5 208t-220.5 495z" />
<glyph unicode="D" horiz-adv-x="1642" d="M27 100q0 41 15 56.5t37.5 19.5t45 13.5t40 48t19.5 110.5q18 293 19 680q0 88 -13.5 115.5t-60.5 44.5q-70 25 -70 88q0 104 183 104q31 0 91 -2t91 -2q68 0 205 6.5t205 6.5q186 0 303.5 -31t212.5 -103q245 -185 245 -558q0 -318 -191.5 -513.5t-496.5 -195.5 q-45 0 -131 4q-250 8 -373 8q-37 0 -109.5 -5t-109.5 -5q-72 0 -114.5 29.5t-42.5 80.5zM670 309q0 -66 26.5 -91t94.5 -25q139 0 213.5 110.5t74.5 321.5q0 281 -77.5 411.5t-243.5 130.5q-49 0 -68.5 -18.5t-19.5 -65.5v-774z" />
<glyph unicode="E" horiz-adv-x="1415" d="M27 1266q0 61 43 80.5t176 19.5h516q164 0 231.5 6t134.5 27q23 6 33 6q61 0 109.5 -84t48.5 -193q0 -66 -27.5 -102.5t-79.5 -36.5q-37 0 -56 19.5t-35.5 46t-44 54.5t-100.5 47.5t-188 19.5q-98 0 -130.5 -25t-32.5 -96l-2 -168q0 -61 20.5 -75.5t104.5 -14.5 q49 0 70.5 33.5t22.5 73.5t19.5 74t63.5 34q120 0 120 -292q0 -148 -35.5 -233.5t-95.5 -85.5q-37 0 -52 32t-18 71t-34 70.5t-94 31.5q-45 0 -61.5 -28.5t-16.5 -106.5q0 -190 28.5 -231t165.5 -41q160 0 237 37.5t128 140.5q29 59 50.5 78.5t58.5 19.5q43 0 69.5 -37 t26.5 -96q0 -78 -58.5 -220t-125.5 -142q-33 0 -110 10t-116 10h-848q-106 0 -106 86q0 29 17.5 46.5t39 24.5t45 30.5t33.5 62.5q33 164 33 405q0 389 -49 490q-4 10 -14.5 18t-15.5 11.5t-22.5 9.5t-19.5 8q-57 14 -57 74z" />
<glyph unicode="F" horiz-adv-x="1353" d="M27 102q0 41 21.5 62.5t66.5 38.5q45 18 61.5 79.5t18.5 219.5l4 317v51q0 186 -13.5 241.5t-62.5 78.5q-49 20 -65.5 37.5t-16.5 46.5q0 45 43 74.5t106 29.5q39 0 117 -6q168 -12 422 -12q350 4 457 20q6 0 15 1t11 1q61 0 108.5 -104t47.5 -184q0 -61 -29.5 -98.5 t-76.5 -37.5t-78 37q-51 59 -80 86t-79 49.5t-118 24.5q-90 4 -135 4q-70 0 -93.5 -57.5t-23.5 -216.5q0 -37 23.5 -51.5t85.5 -14.5q53 0 78.5 27.5t28.5 61.5t22.5 61.5t60.5 27.5q125 0 125 -301q0 -150 -37.5 -232.5t-105.5 -82.5q-37 0 -53.5 35t-18.5 75.5t-32.5 75.5 t-94.5 35q-49 0 -64.5 -13.5t-15.5 -58.5v-79q0 -137 17.5 -192.5t62.5 -61.5q37 -6 54.5 -12.5t36 -26t18.5 -49.5q0 -74 -92 -99q-129 -30 -351 -30h-14q-207 0 -284.5 26.5t-77.5 95.5z" />
<glyph unicode="G" horiz-adv-x="1626" d="M47 678q0 307 217 512t545 205q133 0 246 -37q51 -16 71 -17q23 1 41 7l43 14q18 8 39 8q76 0 134.5 -95t58.5 -216q0 -76 -45 -127t-113 -51q-49 0 -91 27.5t-75 67.5t-69.5 80t-92 67.5t-127.5 27.5q-125 0 -201.5 -96.5t-76.5 -251.5q0 -223 105.5 -384t252.5 -161 q53 0 86 35t33 92q0 45 -32 63q-29 18 -66 18h-4h-4q-37 0 -67 18q-32 20 -32 69q0 160 381 160q401 0 402 -154q0 -39 -25 -65.5t-65 -32.5q-37 -4 -47.5 -14.5t-20.5 -53.5q-53 -195 -225 -307.5t-416 -112.5q-315 0 -537.5 206t-222.5 499z" />
<glyph unicode="H" horiz-adv-x="1642" d="M29 115q0 27 14 46t29.5 29.5t42.5 22.5q43 20 57 105t14 309q0 59 -2 178t-2 178q0 80 -21.5 121t-48 47t-48 21.5t-21.5 50.5q0 53 50 89t129 50t137.5 19t113.5 5q311 0 311 -131q0 -35 -16 -55t-61 -47q-39 -25 -49.5 -62.5t-10.5 -156.5q0 -59 16.5 -79.5 t67.5 -20.5l119 -3q139 0 156 23q10 14 10 43v18q0 117 -12.5 167.5t-47.5 70.5q-45 25 -58 42t-13 46q0 76 90 110.5t285 34.5q356 0 356 -137q0 -33 -16.5 -54t-37 -29.5t-41 -25t-26.5 -38.5q-16 -47 -20 -250l-7 -315v-15q0 -281 50 -307q4 -2 19 -10t20.5 -12.5 t16.5 -12.5t15 -15t8.5 -18.5t4.5 -23.5q0 -76 -90.5 -109.5t-284.5 -33.5q-348 0 -348 131q0 35 14 53t33.5 30.5t39 37t34 90t14.5 172.5q0 70 -17.5 84t-99.5 14q-217 0 -240 -29q-16 -20 -16 -145q0 -166 61 -201q66 -43 66 -94q0 -70 -97.5 -106.5t-279.5 -36.5 q-174 0 -268 34.5t-94 100.5z" />
<glyph unicode="I" horiz-adv-x="845" d="M27 1247q0 45 53 75t136 43t142.5 17t110.5 4q350 0 350 -131q0 -49 -45 -69l-37 -21q-47 -23 -61 -101.5t-14 -303.5q0 -53 2 -78l4 -256q2 -115 17 -152.5t69 -64.5q66 -31 65 -84q0 -145 -430 -145q-340 0 -340 120q0 51 62 86q45 29 58 76t15 193l4 245v56 q0 221 -16 291.5t-76 109.5q-41 27 -55 45.5t-14 44.5z" />
<glyph unicode="J" horiz-adv-x="1284" d="M-14 348q0 100 62.5 166t156.5 66q96 0 160.5 -55.5t64.5 -139.5q0 -16 -7 -45t-7 -45q0 -33 22.5 -53.5t59.5 -20.5q66 0 108.5 58.5t42.5 148.5q0 61 -2 102l-2 246l-8 197q0 61 -14.5 99t-33 51.5t-41 21.5t-42 12t-31.5 21.5t-12 48.5q0 159 396 159h5 q193 0 299.5 -36.5t106.5 -102.5q0 -33 -14.5 -49t-65.5 -43q-45 -23 -59.5 -55.5t-16.5 -110.5l-6 -219l-4 -295q-2 -240 -149.5 -371t-393.5 -131q-258 0 -416.5 103.5t-158.5 271.5z" />
<glyph unicode="K" horiz-adv-x="1693" d="M27 1239q0 59 47 92t151 43q117 12 205 12q162 0 231.5 -30.5t69.5 -100.5q0 -43 -33 -69q-45 -41 -60 -83t-15 -112q0 -88 36 -88q27 0 56.5 30t111.5 136q39 51 39 80q0 18 -15 51t-15 51q0 74 79.5 104.5t272.5 30.5q178 0 247.5 -27t69.5 -99q0 -47 -30.5 -75 t-88.5 -28h-41t-32.5 -1t-23.5 -2t-18 -5t-15.5 -5t-13.5 -8.5t-12 -10.5t-15.5 -15t-18.5 -18.5t-44 -40t-59.5 -54t-42 -53.5t-20.5 -57q0 -45 64 -117l374 -434q49 -57 68.5 -73.5t56.5 -33.5q100 -41 101 -123q0 -106 -152 -106h-379q-39 0 -61.5 17.5t-71.5 82.5 q-59 86 -170.5 215t-154.5 129q-59 0 -60 -108q0 -100 55 -135q70 -45 70 -101q0 -63 -88 -91.5t-287 -28.5q-205 0 -282.5 25.5t-77.5 92.5q0 51 59 90q47 31 63.5 127.5t16.5 333.5q0 287 -20 398q-10 55 -42 84.5t-58.5 50t-26.5 57.5z" />
<glyph unicode="L" horiz-adv-x="1296" d="M29 1243q0 70 104.5 106.5t296.5 36.5q229 0 319.5 -28.5t90.5 -102.5q0 -10 -3 -18t-6.5 -15.5t-11.5 -13.5t-12 -10t-15.5 -10t-15.5 -8t-17.5 -7.5t-15.5 -7.5q-39 -14 -49 -56t-10 -179v-459q0 -160 30.5 -207t133.5 -47q117 0 182.5 49t91.5 158q16 63 70 63 q51 0 85 -47t34 -118q0 -92 -59.5 -220.5t-139.5 -128.5q-39 0 -112.5 12.5t-106.5 14.5h-698q-139 0 -140 86q0 25 16.5 41t41 29.5t49 31t41 58.5t16.5 100l2 100q0 90 -5 274.5t-5 274.5q-2 82 -14.5 111t-51.5 43q-70 23 -93 42t-23 52z" />
<glyph unicode="M" horiz-adv-x="1810" d="M68 150q18 8 31.5 15t23.5 17.5t17 16.5t12.5 21.5t8.5 21.5t5 24.5t3 25.5t2 32.5t1 33.5q20 301 21 535q0 145 -15.5 193.5t-73.5 74.5q-72 35 -71 88q0 63 91 100t249 37q133 0 178 -20t86 -98l207 -383q33 -61 46 -75.5t36 -14.5q39 0 73 69l142 277q55 111 87 153.5 t91 67t166 24.5q152 0 222.5 -30.5t70.5 -98.5q0 -29 -10.5 -46t-45.5 -44q-47 -33 -64.5 -126t-17.5 -310q0 -272 25 -448q10 -68 43 -88q27 -16 37 -24.5t23.5 -27t13.5 -41.5q0 -66 -81 -94t-267 -28q-188 0 -270.5 26.5t-82.5 85.5q0 14 3 25.5t14.5 24t15.5 16.5t23 18 l18 14q27 23 36 82.5t9 204.5q0 80 -7 104.5t-32 24.5q-27 0 -52.5 -37.5t-78.5 -154.5l-121 -269q-31 -70 -49 -92t-45 -22q-25 0 -57.5 52t-93.5 189l-134 297q-25 61 -57 62q-27 0 -34 -50.5t-7 -218.5q0 -106 9.5 -141t43.5 -51q2 -2 11.5 -6t12.5 -6t10 -6.5t10 -7.5 t9.5 -8t8.5 -9l5 -10t4 -12.5t1 -14.5q0 -110 -280 -110h-5q-245 0 -245 107q0 40 41 63z" />
<glyph unicode="N" horiz-adv-x="1699" d="M27 1251q0 76 77.5 105.5t272.5 29.5q90 0 126 -11t87 -56l497 -436q70 -63 99 -64q55 0 55 113q0 125 -15.5 171t-62.5 68q-72 35 -71 91q0 72 60 98t216 26q172 0 238.5 -26.5t66.5 -95.5q0 -66 -76 -99q-53 -23 -70.5 -83t-17.5 -220v-327v-193q0 -203 -26.5 -282.5 t-91.5 -79.5q-10 0 -20.5 2t-22 7t-18.5 8t-18.5 12t-15.5 12.5t-17 15.5t-15 14l-594 533q-61 55 -103 55q-61 0 -61 -168q0 -139 15.5 -190.5t64.5 -75.5q66 -33 65 -88q0 -137 -305 -137q-129 0 -202.5 35.5t-73.5 99.5q0 55 75 98q45 27 59.5 122t14.5 349 q0 311 -43 414q-8 23 -33.5 42t-50 30.5t-45 32t-20.5 48.5z" />
<glyph unicode="O" horiz-adv-x="1593" d="M47 690q0 293 213 498t518 205q291 0 477 -146q133 -104 212 -264t79 -328q0 -287 -225 -484.5t-553 -197.5q-305 0 -513 207t-208 510zM541 891q0 -66 22.5 -167t62.5 -205.5t105.5 -178.5t138.5 -74q78 0 124 57.5t46 151.5q0 74 -20.5 176.5t-58 207t-105 177 t-149.5 72.5q-72 0 -119 -61.5t-47 -155.5z" />
<glyph unicode="P" horiz-adv-x="1400" d="M27 1260q0 96 149 96q20 0 59 -2t60 -2q94 0 280.5 13t278.5 13q231 0 375.5 -118.5t144.5 -311.5q0 -199 -144.5 -323.5t-371.5 -124.5q-31 0 -88 5t-88 5t-31 -33q0 -25 1 -53.5t3 -63t2 -53.5q2 -49 18.5 -71.5t63.5 -49.5q63 -33 64 -73q0 -133 -379 -133 q-358 0 -358 126q0 45 55 74q18 8 30.5 17.5t21.5 15.5t15.5 19.5t10.5 17.5t5 22.5t2 23.5t1 31.5v34.5v109v526q0 102 -14.5 130t-75.5 44q-90 25 -90 89zM657 784q0 -35 18.5 -48t69.5 -13q84 0 132.5 57.5t48.5 157.5q0 104 -52.5 164.5t-142.5 60.5q-74 0 -74 -39v-340 z" />
<glyph unicode="Q" horiz-adv-x="1599" d="M47 678q0 330 227 520q102 86 243.5 140.5t264.5 54.5q270 0 461 -138q131 -92 215 -256.5t84 -328.5q0 -227 -130 -410.5t-331 -239.5q-25 -6 -24 -22q0 -35 89 -61.5t202 -26.5q43 0 95 17.5t60 17.5q20 0 34.5 -27t14.5 -49q0 -33 -24 -66q-63 -78 -178 -123t-254 -45 q-234 1 -586 179q-8 4 -41 19t-44 20.5t-42 18.5t-46 19.5t-42 14.5t-47.5 12t-45 7t-46.5 3q-8 0 -20.5 -3t-20.5 -3q-45 0 -45 60q0 53 44 88.5t109 35.5q6 0 20.5 -1t20.5 -1q29 0 29 21q0 6 -25.5 39t-61.5 85t-72 115.5t-61.5 148.5t-25.5 165zM539 905 q0 -76 20.5 -179t59 -210.5t108.5 -182.5t152 -75q78 0 128 56.5t50 144.5q0 106 -40 247.5t-102 251.5q-82 144 -217 144q-72 0 -115.5 -54.5t-43.5 -142.5z" />
<glyph unicode="R" horiz-adv-x="1589" d="M27 1257q0 119 225 119q39 0 119 -6t118 -6q66 0 193 9t190 9q215 0 346.5 -98t131.5 -260q0 -84 -31 -147.5t-68 -90t-67.5 -49t-30.5 -35.5q0 -16 10.5 -26t38.5 -21q115 -43 159 -126t64 -224q8 -59 22.5 -82.5t53.5 -34.5q74 -18 74 -75q0 -70 -84 -111t-225 -41 q-201 0 -285 105q-43 51 -73.5 146t-47 170t-57.5 133t-109 58q-39 0 -49 -22.5t-10 -108.5q0 -135 13.5 -183t56.5 -71q59 -35 59 -86q0 -68 -82 -95t-283 -27q-370 0 -370 138q0 32 14 46t35.5 26.5t43 36t36 86t14.5 160.5l2 303v117q0 158 -13.5 208t-60.5 75 q-43 23 -58 39t-15 42zM625 850q0 -37 10 -52.5t45 -15.5q86 0 126 46t40 143q0 194 -136 194h-1q-39 0 -55.5 -17.5t-18.5 -64.5z" />
<glyph unicode="S" horiz-adv-x="1320" d="M41 420q0 110 81 110h1q25 0 46 -12t40.5 -35.5t32 -42t30 -50.5t23.5 -40q39 -57 119 -93t168 -36q72 0 117.5 26.5t45.5 67.5q0 47 -54 82t-128 56.5t-170 65.5t-157 99q-158 141 -158 310q0 197 162.5 332t400.5 135q78 0 182.5 -29t122.5 -29q9 0 21 4q61 20 73 21 q78 0 146.5 -111.5t68.5 -197.5q0 -55 -32.5 -94t-81.5 -39q-41 0 -91.5 34.5t-90 76.5t-102 77t-126.5 35q-57 0 -91 -26.5t-34 -72.5q0 -55 69.5 -92t168 -66.5t198 -71.5t169 -132t69.5 -223q0 -213 -176 -349.5t-453 -136.5q-152 0 -305 36t-199 83q-41 39 -73.5 140.5 t-32.5 187.5z" />
<glyph unicode="T" horiz-adv-x="1435" d="M0 1012q0 106 79 242.5t173 136.5q27 0 87 -12.5t128 -12.5h526q74 0 156 23q37 8 53 8q94 0 164 -132t70 -239q0 -72 -40 -113t-110 -41q-98 0 -168 127q-33 63 -51 82t-47 19q-70 0 -70 -133v-559q0 -86 18.5 -125t67.5 -62q55 -23 74.5 -43t19.5 -57q0 -141 -397 -141 q-469 0 -469 149q0 29 20.5 48.5t35 25.5t51.5 16q43 12 59 57.5t23 167.5l12 240q4 123 4 207q0 125 -12.5 167t-46.5 42q-27 0 -59 -36t-58.5 -79t-71.5 -79t-94 -36q-55 0 -91 39t-36 103z" />
<glyph unicode="U" horiz-adv-x="1679" d="M29 1253q0 133 379 133q203 0 294 -31.5t91 -101.5q0 -27 -16.5 -48t-30 -28.5t-46 -21.5t-44 -51t-11.5 -121q0 -104 -2 -141l-6 -219q0 -164 73.5 -259.5t233.5 -95.5q283 0 283 328v221l-2 174q-4 102 -17.5 136t-58.5 55q-51 23 -70.5 42t-19.5 46q0 61 70.5 88.5 t224.5 27.5q160 0 229.5 -26.5t69.5 -85.5q0 -29 -11.5 -43t-62.5 -43q-43 -25 -55.5 -53.5t-14.5 -104.5v-164v-243q0 -152 -14 -233t-49 -142q-84 -147 -254 -211t-369 -64q-311 0 -504 154q-96 76 -130.5 175t-34.5 298q0 63 4 188t4 189q0 90 -11.5 121.5t-56.5 58.5 q-66 43 -65 96z" />
<glyph unicode="V" horiz-adv-x="1644" d="M0 1223q0 163 417 163h5q381 0 381 -126q0 -37 -47 -71t-47 -61q0 -14 20 -61l123 -281q31 -63 61 -63q33 0 58.5 32.5t70.5 131.5l78 170q29 63 29 82q0 33 -50 61.5t-50 61.5q0 66 75.5 95t243.5 29q160 0 225.5 -26t65.5 -88q0 -72 -88 -82q-66 -8 -89.5 -27.5 t-64.5 -105.5l-459 -930q-43 -88 -79.5 -120t-96.5 -32q-63 0 -101 29t-73 107l-407 903q-35 78 -61.5 103.5t-80.5 35.5q-59 10 -59 70z" />
<glyph unicode="W" horiz-adv-x="2129" d="M0 1247q0 137 340 137q197 0 271.5 -26.5t74.5 -97.5q0 -25 -22.5 -64t-22.5 -61q0 -35 65.5 -212.5t100.5 -177.5q39 0 82 111l41 113q4 16 4 22t-6 19l-29 69q-12 35 -36.5 58.5t-46 34t-38 33t-16.5 55.5q0 124 375 124h6q193 0 280.5 -27.5t87.5 -88.5q0 -33 -43 -70 t-43 -68q0 -33 14.5 -71.5t45.5 -97t35 -66.5q39 -84 55 -106.5t39 -22.5q20 0 36.5 25.5t43.5 103.5l49 139q20 61 20 90q0 41 -41 54q-86 27 -86 96q0 59 65.5 85.5t213.5 26.5q227 0 227 -120q0 -45 -67 -105q-29 -25 -41.5 -47t-46.5 -108l-175 -465l-124 -314 q-63 -158 -102.5 -204t-104.5 -46q-61 0 -98 26t-62 87l-199 469q-16 41 -24 50t-23 9q-20 0 -34.5 -24.5t-57.5 -128.5l-137 -338q-37 -92 -72 -122t-104 -30q-63 0 -99 30t-67 108l-369 940q-29 76 -49 84q-86 45 -86 110z" />
<glyph unicode="X" horiz-adv-x="1628" d="M0 111q0 90 115 96q63 2 110 40t162 179l154 195q14 16 14 24t-12 23l-258 327l-47 62q-25 33 -79.5 54.5t-90 45t-35.5 68.5q0 161 477 161h6q197 0 266.5 -26.5t69.5 -102.5q0 -29 -14.5 -48t-29.5 -27t-15 -13q-8 -6 -9 -22q0 -20 36 -68.5t57 -48.5q10 0 22 14 q78 84 78 107q0 14 -37 43t-37 70q0 66 76 94t256 28q156 0 221.5 -29t65.5 -100q0 -45 -30 -64t-110 -26q-94 -6 -225 -172l-35 -41q-33 -41 -64.5 -83t-31.5 -48q0 -8 14 -22l381 -479q35 -43 77 -69t67.5 -32t44 -27.5t18.5 -62.5q0 -33 -25.5 -63.5t-64.5 -47.5 q-102 -40 -391 -40h-14q-188 0 -272.5 26.5t-84.5 85.5q0 51 39 76q41 27 41 47q0 33 -59.5 126t-83.5 93q-18 0 -84 -98q-60 -87 -60 -105t41 -52t41 -70q0 -68 -79.5 -98.5t-256.5 -30.5q-315 0 -315 131z" />
<glyph unicode="Y" horiz-adv-x="1597" d="M0 1255q0 57 54.5 85t183.5 38q92 8 202 8q219 0 310.5 -25.5t91.5 -86.5q0 -25 -27 -59.5t-27 -57.5q0 -37 44.5 -101.5t80.5 -64.5q27 0 80.5 51.5t53.5 98.5q-1 27 -13 41q-45 49 -45 86q0 63 73 90.5t241 27.5q180 0 237 -23.5t57 -94.5q0 -39 -25.5 -59.5 t-86.5 -30.5q-57 -10 -102.5 -46t-149.5 -151q-141 -156 -173 -220.5t-32 -205.5q0 -25 1 -50.5t3 -57t2 -50.5q4 -96 17.5 -128.5t64.5 -57.5q72 -39 72 -92q0 -139 -416 -139q-422 0 -422 137q0 66 76 90q66 25 84 89t18 279q0 90 -14 132.5t-72 117.5q-180 229 -268 295 q-37 29 -65 39q-72 27 -90.5 43.5t-18.5 52.5z" />
<glyph unicode="Z" horiz-adv-x="1404" d="M14 1032q0 115 107 281q40 65 75 65h1q8 0 26 -6q55 -20 269 -20q66 0 172 4l243 14q256 16 291 16q41 0 66.5 -24.5t25.5 -65.5q0 -31 -35 -90l-442 -762q-74 -127 -74 -153q0 -47 144 -47q113 0 171 37.5t107 144.5q23 45 40.5 60.5t49.5 15.5q141 0 142 -160 q0 -55 -20.5 -136t-69 -152.5t-107.5 -71.5q-29 0 -88 9t-90 9h-868q-76 0 -95.5 12.5t-19.5 59.5q0 33 28 80l515 872q23 43 22 55q0 55 -115 56q-98 0 -141 -32t-98 -145q-41 -86 -96 -86q-53 0 -94.5 48.5t-41.5 111.5z" />
<glyph unicode="[" horiz-adv-x="1021" d="M252 -72v1135q0 84 3 135t21.5 90t34 56.5t62.5 28.5t86 12t125 1q219 0 299 -22.5t80 -83.5q0 -74 -105 -74q-20 0 -62 3t-63 3q-74 0 -90 -24t-16 -137v-1123q0 -96 21.5 -119.5t105.5 -23.5q20 0 60 4t60 4q43 0 69 -18.5t26 -50.5q0 -66 -77 -89.5t-296 -23.5 q-231 0 -274 29q-70 45 -70 288z" />
<glyph unicode="\" horiz-adv-x="966" d="M80 1307q0 37 43 58t119 21q49 0 69.5 -17t40.5 -75q23 -57 70 -173t70 -173l360 -823l94 -195q6 -12 27.5 -53t36 -68.5t28 -61.5t13.5 -50q0 -35 -46.5 -60.5t-111.5 -25.5q-55 0 -78.5 29.5t-77.5 173.5q-35 92 -98 235l-360 819q-10 25 -64.5 130.5t-94.5 192.5 t-40 116z" />
<glyph unicode="]" horiz-adv-x="1021" d="M53 1274q0 66 77 89t296 23q229 0 272 -28q72 -49 72 -289v-1135q0 -82 -2 -128t-16.5 -88t-32 -59t-60.5 -30.5t-90 -15.5t-133 -2q-217 0 -298 22.5t-81 81.5q0 76 107 76q20 0 61 -3t62 -3q76 0 92 24.5t16 137.5v1122q0 94 -22.5 118.5t-106.5 24.5q-20 0 -59 -4 t-60 -4q-43 0 -68.5 18.5t-25.5 51.5z" />
<glyph unicode="^" horiz-adv-x="1024" d="M2 752l393 612h232l395 -612h-223l-287 428l-287 -428h-223z" />
<glyph unicode="_" horiz-adv-x="1024" d="M0 -137h1024v-244h-1024v244z" />
<glyph unicode="`" horiz-adv-x="1024" d="M250 1317q0 47 66.5 80t164.5 33q78 0 124 -16.5t46 -43.5q0 -8 -8 -21.5t-8 -21.5q0 -12 8 -23.5t15.5 -17.5t23.5 -16.5t18 -12.5q25 -18 34 -25t23.5 -26.5t14.5 -40.5q0 -74 -104 -73q-182 0 -334 116q-84 68 -84 109z" />
<glyph unicode="a" horiz-adv-x="1161" d="M29 240q0 88 45 153.5t118.5 100t151.5 51t160 16.5q59 2 73.5 12.5t14.5 55.5q0 198 -91 198h-1q-37 0 -73 -32.5t-60.5 -72.5t-67.5 -73t-94 -33q-49 0 -82 29t-33 70q0 68 56.5 125t139.5 90t163.5 50t142.5 17q195 0 313 -88q68 -49 91.5 -108t23.5 -178 q0 -23 -1 -68t-1 -68q0 -123 14.5 -177t48.5 -60q53 -8 54 -45q0 -96 -97.5 -164t-195.5 -68q-59 0 -101.5 25t-67 49.5t-38.5 24.5q-4 0 -98.5 -49.5t-180.5 -49.5q-143 0 -235 75t-92 192zM434 295q0 -47 23.5 -77t60.5 -30q80 0 80 138q0 53 -11.5 73.5t-43.5 20.5 q-45 0 -77 -37t-32 -88z" />
<glyph unicode="b" horiz-adv-x="1296" d="M-6 1149q0 68 114.5 121t233.5 74.5t188 21.5q51 0 52 -59l-11 -392l-2 -20q0 -20 15 -21l47 31q45 31 115.5 61.5t132.5 30.5q164 0 273.5 -123.5t109.5 -308.5q0 -258 -168 -425t-428 -167q-82 0 -174.5 32t-149.5 65l-57 30q-20 0 -61.5 -14t-63.5 -14q-59 0 -60 41 q0 23 13.5 76t15.5 81q10 184 10 336v277q0 102 -8 127.5t-45 42.5q-51 20 -71.5 41.5t-20.5 54.5zM571 530l4 -147q2 -137 22.5 -184t76.5 -47q149 0 149 238q0 144 -43 225t-114 81q-43 0 -65.5 -30.5t-26 -59.5t-3.5 -76z" />
<glyph unicode="c" horiz-adv-x="1077" d="M35 475q0 225 161.5 373.5t407.5 148.5q186 0 316.5 -87t131.5 -212q0 -82 -55 -137t-137 -55q-70 0 -107.5 38t-47 82t-36 81.5t-75.5 37.5q-57 0 -95 -47t-38 -118q0 -117 76.5 -203t183.5 -86h6q76 0 127 24q49 27 72 27q35 0 61.5 -31.5t26.5 -77.5 q0 -102 -136.5 -181t-312.5 -79q-223 0 -376.5 145.5t-153.5 356.5z" />
<glyph unicode="d" horiz-adv-x="1331" d="M33 471q0 215 142 370.5t337 155.5q70 0 148.5 -29.5t82.5 -29.5q31 0 31 86q0 35 -22.5 56.5t-48 27.5t-48 24.5t-22.5 49.5q0 39 33.5 66.5t109.5 47.5q264 72 344 72q86 0 86 -82v-913q0 -78 7.5 -99.5t35.5 -44.5q61 -43 62 -90q0 -43 -53.5 -76.5t-130 -50 t-145.5 -24.5t-120 -8q-35 0 -48 16t-11 36.5t-5 37t-30 16.5q-8 0 -49 -28.5t-104.5 -56.5t-129.5 -28q-172 0 -312 155t-140 343zM510 469q0 -115 38 -183.5t101 -68.5q68 0 97.5 72.5t29.5 240.5q0 133 -26.5 193.5t-85.5 60.5q-70 0 -112 -87t-42 -228z" />
<glyph unicode="e" horiz-adv-x="1085" d="M35 465q0 223 155.5 377.5t378.5 154.5q203 0 336 -108q70 -55 112 -135t42 -152q0 -70 -25.5 -111.5t-70.5 -41.5h-469q-31 0 -31 -27q0 -74 72.5 -127t148.5 -53q115 0 203 63q37 25 53 25q31 0 54.5 -34t23.5 -67q0 -70 -90 -137q-158 -119 -375 -119t-367.5 143.5 t-150.5 348.5zM455 690q0 -31 14 -43t49 -12h103q63 0 63 59q0 53 -30.5 88t-80.5 35q-47 0 -82.5 -38t-35.5 -89z" />
<glyph unicode="f" horiz-adv-x="870" d="M14 621v2l9 127q2 27 17 38t32.5 10t32 7t14.5 29q0 6 -37 86.5t-37 144.5q0 141 118 226t314 85q172 0 282.5 -70.5t110.5 -181.5q0 -61 -44 -105t-105 -44q-96 0 -168 78q-6 6 -27.5 30.5t-32 34.5t-32 21.5t-41.5 11.5q-27 0 -47.5 -21.5t-20.5 -50.5q0 -45 34 -81.5 t76 -57t82 -52.5t50 -67q8 -12 33 -12h123q33 0 45 -9t12 -32l-8 -119q-4 -35 -12.5 -45t-38.5 -10q-10 0 -30 2t-30 2q-45 0 -60.5 -26.5t-15.5 -102.5q0 -127 22.5 -180t82.5 -72q88 -27 88 -102q0 -70 -102.5 -102.5t-325.5 -32.5q-358 0 -359 137q0 39 16.5 54t40 22.5 t47 28t40 90t16.5 186.5q0 94 -84 94q-51 0 -65.5 5t-14.5 24z" />
<glyph unicode="g" horiz-adv-x="1183" d="M27 -135q0 43 26.5 74.5t53 47t26.5 23.5q0 6 -52 63.5t-52 102.5q0 53 40 101.5t78.5 75t38.5 30.5q0 6 -33.5 42t-66.5 94.5t-33 119.5q0 141 144.5 242.5t347.5 101.5q55 0 154.5 -18.5t146.5 -18.5q119 0 217 86q25 19 35 19q27 0 46 -28t19 -69q0 -49 -26.5 -95 t-54 -74.5t-27.5 -39.5q0 -8 2 -24t2 -25q0 -164 -141.5 -263t-372.5 -99q-16 0 -51 3t-54 3q-55 0 -55 -53q0 -72 129 -72q59 0 180 16.5t180 16.5q139 0 217 -63.5t78 -180.5q0 -174 -182 -286.5t-465 -112.5q-225 0 -360 70.5t-135 189.5zM315 -98q0 -59 65.5 -94 t172.5 -35q90 0 145.5 25.5t55.5 68.5q0 27 -19.5 45t-48.5 18t-86 -6t-88 -6q-68 0 -158 12l-14 2q-25 0 -25 -30zM446 709q0 -115 33 -178.5t92 -63.5q51 0 81 41t30 108q0 106 -34 166t-93 60q-47 0 -78 -38t-31 -95z" />
<glyph unicode="h" horiz-adv-x="1390" d="M20 96q0 8 2.5 15.5t4.5 12.5t7 12t8 10.5t10 10.5t10.5 9t12.5 8t11 8q57 41 64 326q2 72 3 132t1 83q0 229 -11.5 288.5t-56.5 82.5q-61 33 -61 75q0 47 65.5 87t154.5 62.5t168 35t122 12.5q33 0 46 -10t13 -39l-12 -420q0 -76 47 -76q14 0 38.5 28t53.5 60.5t85 60 t126 27.5q162 0 254 -98q43 -43 59.5 -100.5t20.5 -169.5l8 -363q4 -74 37 -100q59 -45 59 -80q0 -106 -321 -106q-295 0 -295 98q0 20 39 78q43 55 43 270q0 154 -34 218.5t-112 64.5q-57 0 -82.5 -38t-25.5 -128v-193q0 -12 1 -46t2 -53.5t9 -44t24 -40.5q41 -49 41 -74 q0 -112 -292 -112h-5q-342 0 -342 116z" />
<glyph unicode="i" horiz-adv-x="729" d="M20 791q0 53 60.5 86.5t230.5 74.5q135 35 226 37q57 0 57 -61v-582q0 -68 13.5 -99.5t49.5 -60.5q53 -39 54 -77q0 -129 -324 -129q-188 0 -275 27.5t-87 88.5q0 23 12 42.5t21.5 26.5t33.5 25q57 41 58 228q0 43 -5 133q-2 86 -7 106.5t-23 36.5q-10 8 -31 18.5 t-32 18.5t-21.5 23.5t-10.5 36.5zM39 1176q0 76 101.5 131t248.5 59q76 0 136.5 -27.5t60.5 -95.5q0 -80 -107.5 -135t-263.5 -55q-78 0 -127 33.5t-49 89.5z" />
<glyph unicode="j" horiz-adv-x="755" d="M-6 -262q0 27 18.5 47t42.5 20q6 0 16.5 -2t16.5 -2l18 -2q25 0 40.5 16.5t15.5 41.5q0 14 -5 45.5t-5 48.5v635q0 45 -19.5 71.5t-44.5 34.5t-44 26.5t-19 47.5q0 74 111.5 129t228 75.5t192.5 20.5q35 0 49.5 -17.5t14.5 -62.5v-886q0 -137 -20.5 -210t-72.5 -114 q-119 -96 -305 -96q-96 0 -162.5 39t-66.5 94zM51 1176q0 76 101.5 131t248.5 59q76 0 136.5 -26.5t60.5 -94.5q0 -82 -106.5 -137t-264.5 -55q-78 0 -127 33.5t-49 89.5z" />
<glyph unicode="k" horiz-adv-x="1503" d="M20 1135q0 43 35 72.5t119 62.5q270 96 387 96q57 0 57 -49l-10 -313q0 -16 -1 -63.5t-1 -74.5q0 -111 7.5 -135t39.5 -24q23 0 105 47q49 27 49 49q0 4 -19.5 30.5t-19.5 51.5q0 49 70.5 76.5t195.5 27.5q293 0 293 -127q0 -51 -63 -65q-61 -10 -168 -72 q-53 -33 -54 -49q0 -23 71 -124t171 -220q45 -55 71.5 -79t74.5 -50q74 -39 74 -90q0 -53 -47 -83q-46 -30 -124 -30h-325q-57 0 -95 45l-165 213q-4 4 -15.5 19.5l-23 31t-24.5 30.5t-23.5 25.5t-16.5 10.5q-20 0 -20 -39l-2 -41q0 -68 41 -113t41 -73q0 -70 -76 -99.5 t-246 -29.5q-23 0 -70 1t-69 1q-199 6 -199 118q0 33 23.5 51.5t50 43t33.5 69.5q18 158 18 410v217q0 113 -11.5 143.5t-56.5 36.5q-82 12 -82 64z" />
<glyph unicode="l" horiz-adv-x="747" d="M20 1153q0 55 66 99t160 66.5t176 35t133 12.5q80 0 80 -98q0 -45 -10 -148q-15 -151 -15 -327v-320v-160q0 -74 10.5 -100.5t45.5 -42.5q37 -14 49 -28.5t12 -41.5q0 -70 -72.5 -95t-263.5 -25q-182 0 -263 29.5t-81 94.5q0 27 16.5 41.5t49.5 28.5q39 16 52 108.5 t13 356.5q0 244 -14 313.5t-70 102.5q-74 43 -74 98z" />
<glyph unicode="m" horiz-adv-x="1974" d="M20 80q0 23 8.5 35t45.5 45q37 35 50 110.5t13 259.5q0 88 -15.5 136.5t-32.5 57.5t-32.5 24.5t-15.5 44.5q0 51 58.5 83.5t234.5 79.5q127 33 194 33q53 0 54 -80q0 -6 -1 -19t-1 -20q0 -59 30 -59q8 0 38 27.5t69 61.5t106.5 61.5t141.5 27.5q172 0 235 -121 q25 -45 43 -45q2 0 51 41t129 83t160 42q143 0 223 -76.5t80 -214.5q0 -43 -2 -131t-2 -131q0 -98 -2 -123q0 -94 39 -141q37 -41 37 -63q0 -129 -303 -129q-131 0 -213 31.5t-82 82.5q0 27 43 88q31 39 31 267q0 145 -23 201.5t-80 56.5q-55 0 -79.5 -38t-24.5 -126 l-2 -101l2 -100q2 -123 37 -172q33 -51 32 -70q0 -120 -310 -120h-5q-168 0 -233.5 23.5t-65.5 82.5q0 29 13.5 46.5t29.5 26.5t30.5 49t16.5 109l6 179q0 196 -101 196h-1q-59 0 -80 -63.5t-21 -255.5l2 -86q2 -59 28 -114.5t26 -76.5q0 -116 -309 -116h-5q-295 0 -295 100 z" />
<glyph unicode="n" horiz-adv-x="1374" d="M20 776q0 74 197 143.5t291 69.5q29 0 49.5 -21.5t20.5 -52.5q0 -12 -3 -24q0 -63 39 -64q14 0 38 26t51.5 56.5t85 56t126.5 25.5q127 0 218 -67q63 -49 87.5 -109.5t30.5 -187.5l15 -351q0 -53 30 -88q4 -4 18.5 -18t20.5 -21.5t12.5 -21.5t6.5 -29q0 -68 -80 -93 t-291 -25q-127 0 -185.5 24.5t-58.5 79.5q0 12 5.5 24.5t9.5 17.5t15 18.5t15 17.5q41 41 41 274q0 141 -29.5 201.5t-101.5 60.5q-66 0 -90 -43t-24 -155v-199q0 -82 28 -123q39 -59 39 -82q0 -116 -330 -116h-6q-278 0 -278 109q0 30 7 41t42 36q31 23 42 105.5t11 299.5 q0 59 -18.5 93t-39 42.5t-39 25t-18.5 44.5z" />
<glyph unicode="o" horiz-adv-x="1232" d="M33 438q0 242 167 395.5t435 163.5q227 0 395 -137t168 -360.5t-186.5 -375t-458.5 -151.5q-223 0 -371.5 132.5t-148.5 332.5zM479 647q0 -59 22.5 -163.5t53.5 -182.5q31 -82 100 -82q90 0 90 125q0 164 -77 352q-31 70 -99 70q-41 -4 -65.5 -36t-24.5 -83z" />
<glyph unicode="p" horiz-adv-x="1361" d="M20 745q0 45 27 74t92 60q244 112 423 112h3q39 0 47.5 -24.5t9.5 -50t21 -25.5q2 0 50 26.5t118 53t129 26.5q162 0 275.5 -138t113.5 -333q0 -229 -136 -391t-325 -162q-51 0 -124.5 23.5t-86.5 23.5q-29 0 -28 -59q0 -78 51 -113q4 -2 14.5 -9t14.5 -10l12 -9 t12 -11.5t8 -12.5t6.5 -15t2.5 -19q0 -122 -261 -122h-4q-184 0 -320 58t-136 138q0 35 13 48.5t32.5 20.5t40 23.5t36 70.5t17.5 146l4 217q0 29 -1 70t-1 64.5t-1 52.5t-4 44t-7 30.5t-11.5 22.5t-17.5 9q-35 8 -52.5 14.5t-37 27t-19.5 48.5zM612 338q0 -53 22.5 -77.5 t76.5 -24.5q137 0 137 235q0 111 -39 174.5t-104 63.5q-74 -1 -76 -95z" />
<glyph unicode="q" horiz-adv-x="1327" d="M35 487q0 231 159.5 370.5t423.5 139.5q99 0 173 -18q14 -2 47.5 -11.5t59.5 -13.5t50 -4q37 0 103.5 23.5t101.5 23.5q88 0 88 -69q0 -43 -8 -90q-33 -236 -33 -645q0 -76 8 -232q4 -66 13.5 -88.5t44.5 -48.5q43 -31 43 -84q0 -123 -265 -123q-190 0 -313 48t-123 122 q0 29 21.5 50.5t47 32.5t47 42t21.5 76q0 53 -26 53q-6 0 -93 -34t-149 -34q-195 0 -318.5 144.5t-123.5 369.5zM522 539q0 -133 43 -223.5t109 -90.5q55 0 72.5 49.5t17.5 206.5q0 172 -24.5 234.5t-92.5 62.5q-55 0 -90 -66.5t-35 -172.5z" />
<glyph unicode="r" horiz-adv-x="1095" d="M20 109q0 51 62 92q43 29 54 71.5t14 176.5q2 98 2 165q0 47 -18.5 73t-42 31t-42 23.5t-18.5 51.5q0 47 59.5 87t141 63.5t156.5 35.5t120 12t59.5 -13t18.5 -58q0 -4 1 -18.5t3 -24t5 -19.5t10 -16t17.5 -6t32 23.5t46 53t69.5 53t96 23.5q94 0 154.5 -63.5 t60.5 -161.5q0 -96 -69.5 -166t-169.5 -70q-47 0 -82 18.5t-90 74.5q-20 20 -39 20q-29 0 -37 -31.5t-8 -134.5q0 -172 12 -212t72 -58q90 -27 90 -94q0 -76 -84 -103.5t-314 -27.5q-342 0 -342 129z" />
<glyph unicode="s" horiz-adv-x="976" d="M41 268q0 92 72 92q37 0 71.5 -30.5t60 -66.5t64.5 -66.5t80 -30.5q74 0 74 67q0 25 -39 52.5t-95.5 59.5t-112.5 71t-95 104.5t-39 145.5q0 145 99.5 238t252.5 93q35 0 102.5 -13t102.5 -13q18 0 52 13t52 13q61 0 121 -93t60 -161q0 -43 -28 -70.5t-71 -27.5 q-55 0 -133 78t-123 78q-27 0 -48 -20.5t-21 -47.5q0 -33 44 -63.5t106.5 -61t126 -70.5t107.5 -105.5t44 -149.5q0 -131 -109.5 -220.5t-271.5 -89.5q-45 1 -139 13q-104 12 -109 12q-18 0 -31 -2l-24 -4q-6 -2 -19 -2q-57 0 -92 45q-39 49 -65.5 115.5t-26.5 117.5z" />
<glyph unicode="t" horiz-adv-x="948" d="M-14 852v45q0 31 22 43l459 289q14 8 41 8h82q25 0 33 -11.5t8 -43.5v-138q0 -29 9 -38t42 -9h184q37 0 48.5 -13t11.5 -58v-60q0 -47 -14.5 -65.5t-51.5 -18.5h-180q-29 0 -39 -10t-10 -37v-338q0 -59 29.5 -98t74.5 -39q57 0 84 22.5t49 22.5q29 0 47.5 -30.5 t18.5 -61.5q0 -74 -80 -132t-172 -83t-166 -25q-156 0 -252 91.5t-96 238.5v461q0 23 -6 29t-29 6h-102q-29 0 -37 9t-8 44z" />
<glyph unicode="u" horiz-adv-x="1388" d="M20 848q0 72 115 100q195 41 391 41q59 0 60 -49v-543q0 -174 119 -174q68 0 91 56.5t23 220.5q0 172 -9 216t-54 66q-57 29 -58 74q0 66 99 88q190 45 368 45q100 0 101 -108q-2 -31 -2 -90l-2 -70v-440q0 -33 53 -65t53 -69q0 -68 -136 -117.5t-319 -49.5 q-47 0 -68.5 18t-20.5 39.5t-6 40t-30 18.5q-12 0 -58 -29.5t-113.5 -58t-131.5 -28.5q-100 0 -167.5 31.5t-102.5 93t-49 132t-14 169.5q0 25 1 71.5t1 69.5q0 121 -13.5 165t-60.5 68q-39 20 -49.5 32.5t-10.5 35.5z" />
<glyph unicode="v" horiz-adv-x="1284" d="M-14 872q0 61 94 89t297 28q330 0 330 -98q0 -29 -37 -66t-37 -63q0 -43 42 -117t83 -74q23 0 39 16.5t41 63.5q51 88 51 127q0 23 -34 57.5t-34 59.5q0 51 60.5 72.5t203.5 21.5q115 0 164 -20.5t49 -69.5q0 -47 -73 -72q-57 -18 -77 -38.5t-65 -106.5l-258 -504 q-59 -117 -101 -162t-91 -45q-86 0 -182 189l-285 538q-20 41 -54 67t-60.5 33t-46 25.5t-19.5 48.5z" />
<glyph unicode="w" horiz-adv-x="2025" d="M-12 848q0 68 99 104.5t282 36.5q319 0 319 -117q0 -18 -18.5 -43.5t-18.5 -40.5q0 -37 48.5 -123.5t84.5 -86.5q27 0 60 49q2 4 13 21.5t16.5 29.5t5.5 24q0 47 -60.5 90.5t-60.5 79.5q0 119 389 119q154 0 219.5 -26.5t65.5 -85.5q0 -27 -32 -61t-32 -56q0 -31 45 -110 t72 -79q37 0 94 99q39 74 39 98q0 16 -12 33q-43 61 -43 86q0 100 239 100q125 0 181.5 -24.5t56.5 -79.5q0 -12 -5 -23.5t-10.5 -18.5t-18.5 -13.5t-20.5 -9.5t-23.5 -8t-20 -7q-37 -14 -62 -41t-57 -92l-250 -484q-109 -213 -195 -213q-27 0 -59.5 28t-68.5 78t-62.5 90 t-60.5 98.5t-40 68.5q-2 4 -13 21.5t-17 27.5t-18.5 19.5t-24.5 9.5q-37 0 -74 -66l-168 -289q-44 -81 -106 -81h-2q-68 0 -136 110l-299 500q-100 164 -155 178q-27 8 -42.5 15.5t-29.5 23.5t-14 41z" />
<glyph unicode="x" horiz-adv-x="1232" d="M0 70q0 35 15.5 50t58.5 23q39 6 60.5 29t76.5 113l143 229q10 20 11 23q0 6 -15 22q-10 12 -49 65.5t-59.5 77t-59.5 53t-80 40.5q-80 16 -79 69q0 66 99 95.5t320 29.5q168 0 238 -21.5t70 -74.5q0 -18 -19.5 -48t-19.5 -46q0 -20 29.5 -62.5t50.5 -42.5q23 0 55 51 q31 43 31 61.5t-19.5 46.5t-19.5 44q0 49 49 70.5t157 21.5q180 0 181 -90q0 -39 -43 -61q-31 -14 -54.5 -28.5t-44 -37t-31 -35t-35 -48.5t-34.5 -50q-2 -4 -17.5 -24.5t-27.5 -37t-23.5 -36t-11.5 -29.5q0 -29 103.5 -169t142.5 -159q18 -8 23.5 -10t20.5 -11t21.5 -16.5 t12.5 -19.5t6 -27q0 -70 -83 -95t-306 -25q-197 0 -264.5 22.5t-67.5 85.5q0 31 20.5 46.5t41 27.5t20.5 33q0 35 -39 93t-70 58q-20 0 -68 -72.5t-48 -105.5q0 -20 23.5 -49t23.5 -51q0 -88 -209 -88q-207 0 -207 90z" />
<glyph unicode="y" horiz-adv-x="1267" d="M0 846q0 104 229 131q104 12 213 12q252 0 252 -125q0 -20 -22.5 -55t-22.5 -57q0 -39 44 -123t79 -84q41 0 68.5 71.5t27.5 108.5q0 39 -30.5 81t-30.5 71q0 51 66.5 81.5t177.5 30.5q217 0 217 -104q0 -37 -21.5 -57.5t-79.5 -43.5q-51 -18 -87 -75.5t-89 -204.5 l-133 -363q-39 -106 -80 -185t-102.5 -152.5t-149.5 -113.5t-196 -40q-133 0 -219 65.5t-86 167.5q0 76 50 128t122 52q59 0 96 -32.5t48 -70.5t27.5 -70.5t39.5 -32.5q33 0 54 26.5t21 67.5q0 45 -53 158l-240 512q-49 106 -94 129q-31 12 -46 21t-32.5 28.5t-17.5 46.5z " />
<glyph unicode="z" horiz-adv-x="1052" d="M12 711q0 84 57.5 190.5t112.5 106.5q14 0 35 -7q61 -23 164 -26l166 -4h266q117 0 144.5 -10.5t27.5 -55.5q0 -35 -33 -94l-264 -471q-33 -55 -33 -82q0 -47 70 -47q49 0 85 26.5t51.5 57.5t36 57.5t42.5 26.5q43 0 70.5 -35t27.5 -92q0 -78 -61.5 -180.5t-132.5 -102.5 q-14 0 -65.5 15.5t-88.5 15.5h-524q-133 0 -133 74q0 23 10 43q0 8 14.5 30.5t34 52t21.5 33.5l229 367q63 106 64 129q0 41 -84 41q-45 0 -77 -25.5t-46.5 -55.5t-39 -55.5t-59.5 -25.5q-37 0 -62.5 30t-25.5 73z" />
<glyph unicode="{" horiz-adv-x="1021" d="M72 498q0 51 27.5 73.5t62.5 28.5t62.5 49t27.5 129v314q0 164 80 229t246 65q227 0 309 -23.5t82 -86.5q0 -72 -111 -72q-10 0 -31.5 1t-33.5 1q-104 0 -135 -23.5t-31 -101.5v-75v-248q0 -70 -16.5 -122t-36 -74.5t-36 -38t-16.5 -21.5t25.5 -34t52.5 -86t27 -142v-250 v-76q0 -78 30.5 -100.5t135.5 -22.5q12 0 33.5 1t31.5 1q111 0 111 -74q0 -63 -82 -85.5t-309 -22.5q-168 0 -247 64.5t-79 230.5v313q0 86 -27.5 129t-62.5 49t-62.5 29t-27.5 72z" />
<glyph unicode="|" horiz-adv-x="1024" d="M414 -362v1728h196v-1728h-196z" />
<glyph unicode="}" horiz-adv-x="1021" d="M53 -281q0 74 109 74q10 0 30.5 -1t30.5 -1q49 0 74 2t51.5 13.5t36.5 38t10 69.5v76v250q0 166 72 221q33 23 33 35q0 10 -17 26q-88 78 -88 236v248v75q0 78 -31.5 101.5t-134.5 23.5q-29 0 -43 -2q-29 0 -45 1t-39.5 7.5t-36 22.5t-12.5 41q0 66 81 88t310 22 q168 0 246 -63t78 -231v-314q0 -92 22.5 -128t90.5 -56q70 -23 69.5 -96.5t-69.5 -94.5q-68 -20 -90.5 -57t-22.5 -127v-313q0 -164 -78 -229.5t-246 -65.5q-227 0 -309 22.5t-82 85.5z" />
<glyph unicode="~" horiz-adv-x="1024" d="M2 1098q78 137 143.5 191t151.5 54q80 0 230.5 -68.5t201.5 -68.5q49 0 88 35t92 125l111 -125q-80 -131 -142.5 -182t-144.5 -51q-80 0 -219 68.5t-217 68.5q-51 0 -91 -38t-93 -136z" />
<glyph unicode="&#xa1;" horiz-adv-x="630" d="M82 -88q0 131 47 265t129 235q33 43 61 43q53 0 140 -187q90 -190 90 -362q0 -129 -64 -208t-168 -79q-102 0 -168.5 83t-66.5 210zM98 780q0 90 64.5 153.5t156.5 63.5q84 0 148.5 -63.5t64.5 -145.5q0 -94 -61.5 -158.5t-151.5 -64.5q-94 0 -157.5 61.5t-63.5 153.5z " />
<glyph unicode="&#xa2;" d="M158 575q0 145 96 271.5t235 163.5q23 4 28 11t5 36v26q0 43 13.5 56.5t56.5 13.5h57q39 0 54.5 -17.5t12.5 -38t5 -40t33 -23.5q129 -14 224 -92t95 -172q0 -78 -50 -127t-130 -49q-57 0 -89 34t-42 73.5t-36 73.5t-69 34q-49 0 -82.5 -44t-33.5 -108q0 -106 69.5 -182 t165.5 -76q72 0 154 37q16 8 31 8q29 0 53 -29.5t24 -66.5q0 -74 -79.5 -135t-215.5 -92q-16 -4 -21 -12.5t-5 -34.5v-31q0 -41 -13.5 -54.5t-54.5 -13.5h-57q-39 0 -54.5 14.5t-15.5 53.5v39q0 31 -6 38t-37 13q-133 29 -227 162t-94 280z" />
<glyph unicode="&#xa3;" d="M20 209q0 100 46.5 157.5t130.5 57.5q20 0 57 -8t57 -8q25 0 25 22q0 10 -2 19q-4 20 -9.5 45.5t-6.5 31.5t-14 14.5t-31.5 9.5t-59.5 1q-8 0 -25.5 -1t-25.5 -1q-82 0 -82 100q0 80 49 80h51q43 2 43 25q0 20 -13 68t-13 75q0 176 143 276.5t391 100.5q201 0 313 -92 q113 -90 113 -211q0 -76 -44 -120t-120 -44q-66 0 -103.5 35t-37.5 94q0 10 1 28.5t1 26.5q0 47 -23.5 68.5t-74.5 21.5q-111 0 -111 -131q0 -127 24.5 -168t100.5 -41q8 0 28.5 1t28.5 1q49 0 65.5 -20.5t16.5 -81.5q0 -74 -59 -74h-23q-61 0 -93 -10t-39 -22.5t-15 -41.5 t-18 -47q-25 -49 -25 -57q0 -29 49 -49q111 -45 168 -45q51 0 89 27.5t57.5 60.5t50 60.5t67.5 27.5q45 0 73 -31.5t28 -83.5q0 -152 -115 -267.5t-264 -115.5q-78 0 -155 33t-123 65.5t-48 32.5q-20 0 -64 -31.5t-103.5 -64.5t-119.5 -33q-88 0 -147.5 67t-59.5 167z" />
<glyph unicode="&#xa4;" horiz-adv-x="1366" d="M51 270q0 8 6 19q4 2 19 16l151 152q18 18 19 30l-21 45q-20 43 -41.5 110t-21.5 126q0 143 67 250q16 27 17 33q-1 12 -19 30l-151 152q-14 14 -19 16q-6 8 -6 19q0 10 25 35l74 73q25 25 35 25t100 -95.5t116 -95.5q4 0 48.5 19.5t111 39t123.5 19.5q88 0 183.5 -39 t99.5 -39q14 0 22 9l154 153q29 29 41 29q10 0 35 -25l73 -73q25 -25 25 -35.5t-25 -34.5l-151 -152q-18 -18 -19 -30q0 -2 20.5 -47.5t41 -113t20.5 -122.5q0 -68 -20.5 -132.5t-41 -102t-20.5 -46.5q0 -12 19 -30l151 -152q25 -25 25 -35t-25 -37q-2 -2 -13 -14 t-23.5 -24.5t-27 -25.5t-26.5 -22.5t-18 -9.5q-20 0 -104.5 95.5t-112.5 95.5q-6 0 -48 -19.5t-108 -39t-127 -19.5t-126.5 19.5t-107.5 39t-49 19.5q-23 0 -104.5 -95.5t-112.5 -95.5q-16 0 -74.5 58.5t-58.5 74.5zM406 772q0 -115 81.5 -197.5t196.5 -82.5t197 81.5 t82 198.5q0 115 -82 197t-197 82t-196.5 -82t-81.5 -197z" />
<glyph unicode="&#xa5;" d="M-10 1151q0 68 75.5 95.5t262.5 27.5q182 0 260 -24.5t78 -80.5q0 -25 -32 -54.5t-32 -51.5q0 -35 41 -94.5t74 -59.5q25 0 72 45t47 93q0 20 -33 51.5t-33 70.5q0 102 256 103q127 0 171 -22.5t44 -86.5q0 -35 -16.5 -53t-59.5 -29q-29 -8 -59.5 -31.5t-46 -42 t-45 -57.5t-37.5 -49l-16 -20q-4 -4 -5 -15q0 -14 23 -14q8 0 26.5 2t28.5 2q70 0 93.5 -16.5t23.5 -63.5q0 -59 -78 -59q-27 0 -80 -1t-80 -1h-30q-18 -2 -29.5 -10.5t-18 -25.5t-8.5 -30.5t-3 -37t-3 -31.5v-2q0 -31 45 -31q27 0 79 1t79 1q106 0 106 -80q0 -33 -18 -46 t-63 -13h-5q-27 0 -79 -1t-76 -1q-45 0 -54.5 -4.5t-9.5 -26.5q0 -90 13.5 -126t58.5 -58q66 -35 66 -84q0 -68 -90.5 -98.5t-284.5 -30.5q-379 0 -379 126q0 37 24.5 56.5t54 30t54.5 54.5t25 122q0 18 -8.5 24t-32.5 6q-39 0 -121 -4q-104 0 -105 78q0 66 64 66 q102 0 153 2q35 0 44.5 5t9.5 27q0 41 -15.5 86.5t-44.5 45.5q-84 0 -127 -3q-104 0 -104 76q0 63 63 68h54q35 0 34 20q0 10 -26 45q-10 4 -58.5 68.5t-83.5 83.5q-49 27 -61 41t-12 47z" />
<glyph unicode="&#xa6;" horiz-adv-x="1024" d="M414 -362v772h196v-772h-196zM414 594v772h196v-772h-196z" />
<glyph unicode="&#xa7;" horiz-adv-x="1474" d="M133 -106q0 45 62.5 74.5t154.5 29.5q43 0 82 -28.5t66.5 -62.5t85 -62.5t135.5 -28.5q63 0 102 25.5t39 66.5q0 68 -141 100q-248 55 -410 144q-70 39 -113.5 114.5t-43.5 159.5q0 86 43 163t118 122q18 10 19 20q0 8 -15 21q-145 106 -145 258q0 182 151.5 279 t436.5 97q231 0 393 -65.5t162 -157.5q0 -51 -70.5 -88t-132.5 -37q-45 0 -76 27q-63 61 -118.5 92t-126.5 31q-55 0 -91 -23.5t-36 -58.5q0 -78 176 -113q156 -29 311 -94q88 -41 139 -120t51 -173q0 -70 -28.5 -128t-64.5 -89t-64.5 -55.5t-28.5 -32.5q0 -6 27.5 -28.5 t61.5 -52.5t61.5 -86t27.5 -124q0 -182 -149.5 -290.5t-403.5 -108.5q-365 0 -547 135q-41 31 -70.5 75t-29.5 73zM551 539q0 -65 88 -90q8 -2 59.5 -20.5t87 -29t58.5 -10.5q25 0 42 37t17 66q0 68 -84 90q-14 4 -62 19t-87 26.5t-56 11.5q-27 0 -45 -36t-18 -64z" />
<glyph unicode="&#xa8;" horiz-adv-x="1024" d="M-39 1237q0 82 78 125t223 43q96 0 151.5 -33t55.5 -90q0 -70 -92 -118t-230 -48q-80 0 -133 35t-53 86zM553 1237q0 82 78 125t223 43q96 0 151.5 -33t55.5 -90q0 -70 -92 -118t-230 -48q-80 0 -133 35t-53 86z" />
<glyph unicode="&#xa9;" horiz-adv-x="1593" d="M47 684q0 295 220.5 502t535.5 207q305 0 524 -209t219 -500q0 -293 -219 -502t-524 -209q-315 0 -535.5 208t-220.5 503zM197 684q0 -240 177 -407.5t427 -167.5q246 0 421 168.5t175 406.5q0 236 -175 404.5t-421 168.5q-250 0 -427 -167.5t-177 -405.5zM377 686 q0 154 125 270.5t293 116.5q70 0 137 -24.5t72 -24.5q18 0 26 2q20 4 31 4q45 0 79 -56t34 -130q0 -51 -31 -83t-82 -32q-33 0 -61.5 28.5t-49 62.5t-60.5 62.5t-95 28.5q-57 0 -89 -36.5t-32 -102.5q0 -113 65.5 -186.5t166 -73.5t153.5 49q25 20 41 21q23 0 38 -19.5 t15 -46.5q0 -45 -30.5 -93t-71.5 -54q-18 -4 -108.5 -33t-143.5 -29q-172 0 -297 112.5t-125 266.5z" />
<glyph unicode="&#xaa;" horiz-adv-x="819" d="M72 588q0 29 20 49q14 39 24.5 49t37.5 10q31 0 90 -3t88 -3h270q16 0 53 1t54 1q39 0 39 -22q0 -16 -15 -70q-6 -39 -59 -39q-20 0 -44 1t-51.5 3t-43.5 2h-220q-33 0 -97 -1t-97 -1q-49 0 -49 23zM113 954q0 84 68.5 133.5t187.5 49.5q29 0 36 5t7 27q0 109 -45 109 q-18 0 -65.5 -58.5t-90.5 -58.5q-29 0 -47.5 16.5t-18.5 41.5q0 76 92.5 117.5t178.5 41.5q229 0 229 -211v-77q0 -123 31 -125q31 -4 31 -29q0 -53 -53.5 -93t-108.5 -40q-57 0 -88 43q-10 12 -19 12q-10 0 -26 -12q-51 -43 -121 -43q-78 0 -128 43t-50 108zM336 985 q0 -55 41 -55q39 0 39 74q0 47 -27 47q-23 0 -38 -19.5t-15 -46.5z" />
<glyph unicode="&#xab;" horiz-adv-x="1093" d="M27 528q0 59 84 168t183 193t144 84q39 0 69 -24.5t30 -59.5q0 -49 -89.5 -167t-89.5 -187q0 -51 80 -170q4 -6 30 -41t37 -54.5t24.5 -49.5t13.5 -50q0 -33 -28 -58.5t-58 -25.5q-80 0 -255 177t-175 265zM551 530q0 94 170 268.5t242 174.5q41 0 69.5 -24.5t28.5 -57.5 q0 -47 -90 -166t-90 -188q0 -47 80 -170q8 -10 30.5 -43t35.5 -53.5t25.5 -49t12.5 -49.5q0 -33 -27.5 -58.5t-58.5 -25.5q-80 0 -254 176t-174 266z" />
<glyph unicode="&#xac;" horiz-adv-x="1024" d="M12 385v184h998v-569h-185v385h-813z" />
<glyph unicode="&#xad;" horiz-adv-x="581" d="M0 397q0 84 51 200t123 116q39 0 119 -8.5t121 -8.5q23 0 67.5 5.5t67.5 5.5q33 0 33 -45q0 -72 -45 -196t-105 -124q-43 0 -125 10t-125 10q-23 0 -69.5 -3t-69.5 -3q-43 0 -43 41z" />
<glyph unicode="&#xae;" horiz-adv-x="1593" d="M47 684q0 295 220.5 502t535.5 207q305 0 524 -209t219 -500q0 -293 -219 -502t-524 -209q-315 0 -535.5 208t-220.5 503zM197 684q0 -240 177 -407.5t427 -167.5q246 0 421 168.5t175 406.5q0 236 -175 404.5t-421 168.5q-250 0 -427 -167.5t-177 -405.5zM360 391 q0 18 12.5 30.5t28 20t27.5 42t12 96.5q0 39 1 114.5t1 112.5q0 76 -7 101.5t-29 35.5q-45 20 -46 51q0 70 132 70q2 0 94 -6q41 0 127 4t127 4q123 0 198.5 -54.5t75.5 -142.5q0 -57 -27.5 -94t-55 -53t-27.5 -23q0 -12 22 -18q51 -16 81 -57t36 -79t18.5 -71t32.5 -39 q47 -16 47 -47q0 -41 -49 -64.5t-131 -23.5q-100 0 -154.5 51t-63.5 111.5t-32 112t-68 51.5q-16 0 -22 -7.5t-6 -27.5v-39q0 -61 7 -85t28 -34q37 -18 36 -51q0 -39 -47 -55.5t-164 -16.5q-215 0 -215 80zM709 774q0 -16 4 -20t20 -4q86 0 86 94q0 96 -71 96 q-18 0 -24.5 -7t-8.5 -30l-6 -125v-4z" />
<glyph unicode="&#xaf;" horiz-adv-x="1024" d="M49 1159q0 45 45 134t103 89q39 0 115.5 -5t113.5 -5h358q23 0 70 2t72 2q20 0 33.5 -11t13.5 -28q0 -51 -40 -139t-89 -88q-37 0 -105.5 7t-83.5 7h-290q-160 0 -236 -6q-80 0 -80 41z" />
<glyph unicode="&#xb0;" horiz-adv-x="780" d="M53 1073q0 135 99.5 230.5t238.5 95.5t238.5 -95.5t99.5 -230.5q0 -133 -99.5 -228t-238.5 -95t-238.5 95t-99.5 228zM223 1073q0 -68 48 -117t118 -49t119 49.5t49 116.5q0 70 -49 119t-119 49t-118 -49t-48 -119z" />
<glyph unicode="&#xb1;" d="M123 55v119q0 35 19.5 48.5t68.5 13.5h801q57 0 76.5 -15.5t19.5 -58.5v-105q0 -35 -17.5 -46t-74.5 -11h-821q-72 0 -72 55zM123 760v114q0 33 19.5 46.5t68.5 13.5h215q49 0 61 12q10 10 11 62v217q0 72 55 71h125q55 0 55 -71v-217q0 -53 10 -62q12 -12 62 -12h213 q51 0 70.5 -13.5t19.5 -46.5v-114q0 -33 -19.5 -46.5t-70.5 -13.5h-213q-49 0 -62 -12q-10 -10 -10 -61v-217q0 -72 -55 -72h-125q-55 0 -55 72v217q0 53 -11 61q-12 12 -61 12h-215q-49 0 -68.5 13.5t-19.5 46.5z" />
<glyph unicode="&#xb2;" horiz-adv-x="821" d="M23 582q0 29 48 73.5t104 87.5t104.5 104.5t48.5 115.5q0 57 -64 57q-33 0 -76 -33t-71 -33q-31 0 -59.5 21.5t-28.5 52.5q0 90 143 148.5t252 58.5q139 0 222 -50t83 -136q0 -66 -53 -126.5t-105.5 -102.5t-52.5 -60q0 -14 14.5 -23.5t34.5 -9.5q53 0 97 39l24 20 q20 8 29 9q66 0 65 -93q0 -72 -41 -142.5t-106 -70.5q-27 0 -50.5 28t-62.5 28h-436q-63 0 -63 37z" />
<glyph unicode="&#xb3;" horiz-adv-x="821" d="M8 524q0 31 21.5 50.5t56.5 19.5q11 0 31 -4q78 -16 114 -17q74 0 121 30t47 75q0 39 -34.5 64.5t-90.5 25.5q-14 0 -44.5 -6t-47.5 -6q-18 0 -37.5 32.5t-19.5 65.5q0 23 42 37t84 37.5t42 64.5q0 33 -26.5 56.5t-63.5 23.5q-25 0 -66 -20.5t-61 -20.5q-27 0 -45 43 q-6 14 -6 29q0 63 117.5 98t201.5 35q150 0 235 -44t85 -120q0 -31 -14.5 -56.5t-32 -37.5t-32 -24.5t-14.5 -20.5q0 -12 29 -16q84 -10 131 -59.5t47 -125.5q0 -137 -132 -223t-345 -86q-131 0 -212 27.5t-81 72.5z" />
<glyph unicode="&#xb4;" horiz-adv-x="1024" d="M250 1165q0 39 51 78l61 45q25 14 25 39q0 8 -8 21.5t-8 21.5q0 27 45 43.5t116 16.5q104 0 172 -32t68 -81q0 -43 -86 -109q-150 -117 -334 -116q-102 0 -102 73z" />
<glyph unicode="&#xb6;" d="M84 981q0 182 101.5 293.5t267.5 111.5q37 0 82 -6q159 -18 317 -18q25 0 78 1t78 1q137 0 137 -86q0 -61 -88 -82q-61 -16 -75.5 -42t-14.5 -120v-1368q0 -39 -8.5 -47t-45.5 -8h-59q-39 0 -45 8q-10 10 -10 47v1432q0 39 -8.5 47t-45.5 8h-47q-37 0 -47 -8 q-8 -10 -8 -47v-1432q0 -39 -8 -47t-47 -8h-60q-39 0 -47 8t-8 47v836q0 41 -10 50t-55 11q-145 8 -234.5 123t-89.5 295z" />
<glyph unicode="&#xb7;" horiz-adv-x="614" d="M72 502q0 102 67.5 170.5t168 68.5t168 -68.5t67.5 -170.5q0 -94 -70 -164t-166 -70t-165.5 69t-69.5 165z" />
<glyph unicode="&#xb8;" horiz-adv-x="1024" d="M274 -354q0 51 37 72.5t82 21.5t82 11t37 44q0 18 -9 48t-20.5 53.5t-28 58.5t-20.5 45h162l125 -246q31 -59 31 -92q0 -61 -59.5 -96t-162.5 -35q-121 0 -188.5 30.5t-67.5 84.5z" />
<glyph unicode="&#xb9;" horiz-adv-x="821" d="M61 623q0 23 18.5 38t45.5 15q10 0 32.5 -3t32.5 -3q33 0 44.5 30.5t13.5 126.5l2 166q0 31 -12.5 42.5t-44.5 11.5q-8 0 -23.5 -2.5t-24.5 -2.5q-57 0 -57 48q0 70 181.5 108.5t292 38.5t110.5 -57q0 -31 -47 -50q-35 -14 -42.5 -41.5t-7.5 -154.5q0 -172 13.5 -217 t62.5 -47q82 -4 94 -35q4 -8 5 -19q0 -86 -336 -86q-158 0 -255.5 26t-97.5 67z" />
<glyph unicode="&#xba;" horiz-adv-x="819" d="M72 588q0 29 20 49q14 39 24.5 49t37.5 10q31 0 90 -3t88 -3h270q16 0 53 1t54 1q39 0 39 -22q0 -16 -15 -70q-6 -39 -59 -39q-20 0 -44 1t-51.5 3t-43.5 2h-220q-33 0 -97 -1t-97 -1q-49 0 -49 23zM98 1065q0 135 89.5 222t232.5 91q123 0 213 -78.5t90 -199.5 q0 -125 -100.5 -210t-245.5 -85q-121 0 -200 73.5t-79 186.5zM342 1182q0 -61 22.5 -148.5t67.5 -87.5q43 0 43 66q0 88 -26.5 159.5t-59.5 71.5h-4q-43 -4 -43 -61z" />
<glyph unicode="&#xbb;" horiz-adv-x="1093" d="M27 172q0 37 18 64q6 10 33.5 49t46 65.5t41 64.5t34 68.5t11.5 53.5q0 61 -89 179t-89 169v4q0 33 28.5 58.5t67.5 25.5q76 0 245 -177.5t169 -260.5q0 -88 -172 -267.5t-258 -179.5q-31 0 -58.5 25.5t-27.5 58.5zM551 170q0 34 18 63q6 10 44 64.5t59.5 86.5t42 77 t20.5 74q0 63 -89 178.5t-89 171.5l-2 2q0 35 28.5 60.5t67.5 25.5q78 0 247 -176t169 -262q0 -90 -174 -269.5t-256 -179.5q-31 0 -58.5 25.5t-27.5 58.5z" />
<glyph unicode="&#xbc;" horiz-adv-x="1914" d="M63 623q0 20 18.5 35.5t45.5 15.5q12 0 32.5 -3t33.5 -3q33 0 44 31.5t13 127.5l2 166q0 31 -11.5 41t-45.5 10q-8 0 -23.5 -1t-24.5 -1q-57 0 -57 48q0 70 181.5 108.5t292 38.5t110.5 -57q0 -31 -47 -50q-35 -16 -42 -42.5t-7 -153.5q0 -172 13 -217t62 -49 q98 0 99 -52q0 -86 -336 -86q-158 0 -255.5 26t-97.5 67zM477 -84q0 10 59.5 107.5t134.5 217.5t79 128l303 512q104 176 161 297q27 51 49.5 68.5t67.5 17.5q94 0 94 -50q0 -18 -47 -99t-113.5 -184.5t-80.5 -125.5l-310 -524l-135 -242q-6 -10 -24.5 -51t-31.5 -62.5 t-37.5 -43t-53.5 -21.5q-51 0 -83 15t-32 40zM1120 117q0 59 21.5 101t97.5 126l164 178q115 127 178.5 170t138.5 43q68 0 68 -69v-408q0 -25 42 -28t42 -37v-121q0 -27 -13.5 -33t-30 -7t-22.5 -12q-2 0 -2 -16v-70q0 -45 -45 -45h-217q-45 0 -45 45v62q0 37 -39 37h-250 q-47 0 -67.5 19.5t-20.5 64.5zM1300 238q0 -18 62 -21l39 -2h45q37 0 46 6t11 33q4 90 4 135t-26 45q-23 0 -41 -22q-2 -2 -21.5 -22.5t-37 -40t-37 -42t-32 -41t-12.5 -28.5z" />
<glyph unicode="&#xbd;" horiz-adv-x="1914" d="M63 623q0 20 18.5 35.5t45.5 15.5q12 0 32.5 -3t33.5 -3q33 0 44 31.5t13 127.5l2 166q0 31 -11.5 41t-45.5 10q-8 0 -23.5 -1t-24.5 -1q-57 0 -57 48q0 70 181.5 108.5t292 38.5t110.5 -57q0 -31 -47 -50q-35 -16 -42 -42.5t-7 -153.5q0 -172 13 -217t62 -49 q98 0 99 -52q0 -86 -336 -86q-158 0 -255.5 26t-97.5 67zM477 -84q0 10 59.5 107.5t134.5 217.5t79 128l303 512q104 176 161 297q27 51 49.5 68.5t67.5 17.5q94 0 94 -50q0 -18 -47 -99t-113.5 -184.5t-80.5 -125.5l-310 -524l-135 -242q-6 -10 -24.5 -51t-31.5 -62.5 t-37.5 -43t-53.5 -21.5q-51 0 -83 15t-32 40zM1116 37q0 20 48 68.5t104.5 97.5t104.5 110.5t48 104.5q0 57 -61 57q-31 0 -76 -32.5t-74 -32.5q-31 0 -59.5 21.5t-28.5 51.5q0 55 88 115q139 92 308 92q139 0 222 -50t83 -136q0 -68 -53.5 -129.5t-105.5 -101.5t-52 -58 q0 -14 14 -23.5t35 -9.5q55 0 98 37q31 31 51 31q66 0 66 -92q0 -72 -41 -142.5t-106 -70.5q-31 0 -54 32q-18 23 -57 23h-436q-66 0 -66 37z" />
<glyph unicode="&#xbe;" horiz-adv-x="1912" d="M8 524q0 31 21.5 50.5t56.5 19.5q11 0 31 -4q78 -16 114 -17q74 0 121 30t47 75q0 39 -34.5 64.5t-90.5 25.5q-14 0 -44.5 -6t-47.5 -6q-18 0 -37.5 32.5t-19.5 65.5q0 23 42 37t84 37.5t42 64.5q0 33 -26.5 56.5t-63.5 23.5q-25 0 -66 -20.5t-61 -20.5q-27 0 -45 43 q-6 14 -6 29q0 63 117.5 98t201.5 35q150 0 235 -44t85 -120q0 -31 -14.5 -56.5t-32 -37.5t-32 -24.5t-14.5 -20.5q0 -12 29 -16q84 -10 131 -59.5t47 -125.5q0 -137 -132 -223t-345 -86q-131 0 -212 27.5t-81 72.5zM475 -84q0 10 59.5 107.5t134.5 217.5t79 128l303 512 q98 166 163 297q25 51 48.5 68.5t68.5 17.5q94 0 94 -50q0 -18 -47 -98t-115.5 -185.5t-80.5 -125.5l-310 -524l-135 -242q-4 -8 -18 -41t-24.5 -50.5t-27 -41t-36 -34.5t-41.5 -11q-51 0 -83 15t-32 40zM1118 117q0 59 22.5 101t98.5 126l162 178q115 127 178 170t139 43 q70 0 70 -69v-408q0 -25 42 -28t42 -37v-121q0 -27 -13.5 -33t-31 -7t-23.5 -12q-2 -6 -2 -16v-70q0 -45 -43 -45h-219q-45 0 -45 45v62q0 20 -8 28.5t-31 8.5h-248q-49 0 -69.5 19.5t-20.5 64.5zM1300 238q0 -18 60 -21l39 -2h47q37 0 46 6t11 33q2 45 2 135q0 45 -26 45 q-23 0 -39 -22q-2 -4 -22.5 -23.5t-37 -39t-37 -42t-32 -41t-11.5 -28.5z" />
<glyph unicode="&#xbf;" horiz-adv-x="987" d="M20 -14q0 68 41 128t109 95l92 45q51 27 82 66.5t40 69.5t41 52.5t89 22.5q59 0 95 -36t36 -95q0 -80 -85 -210t-85 -210q0 -45 19.5 -72.5t50 -27.5t45 30.5t23 75.5t24.5 90t64.5 76t125.5 31q63 0 104.5 -41t41.5 -101q0 -154 -137.5 -262t-331.5 -108 q-199 0 -341.5 111.5t-142.5 269.5zM311 778q0 90 64.5 153.5t156.5 63.5q84 0 148.5 -62.5t64.5 -144.5q0 -94 -61.5 -159.5t-151.5 -65.5q-94 0 -157.5 62.5t-63.5 152.5z" />
<glyph unicode="&#xc0;" horiz-adv-x="1693" d="M0 92q0 33 15.5 49.5t56.5 32.5q66 23 98.5 64t93.5 178l142 309q78 168 104.5 253t28.5 167q2 254 221 254q162 0 274 -160q117 -162 297 -547l191 -405q27 -57 44 -74.5t54 -24.5q74 -10 74 -69q0 -76 -87 -107.5t-288 -31.5q-219 0 -338 18q-47 10 -78 36.5t-31 61.5 t14.5 50.5t59.5 31.5q47 16 47 51q0 78 -108 84q-113 10 -203 11q-139 0 -176 -18.5t-37 -88.5q0 -18 19.5 -30.5t43 -18.5t43 -23.5t19.5 -46.5q0 -119 -289 -118q-168 0 -236.5 25.5t-68.5 86.5zM504 1700q0 47 66.5 79.5t164.5 32.5q78 0 124 -16t46 -43q0 -8 -8 -21.5 t-8 -21.5q0 -12 8 -23.5t15.5 -17.5t23.5 -16.5t18 -12.5q25 -18 34 -25t23.5 -26.5t14.5 -40.5q0 -74 -104 -73q-182 0 -334 116q-84 68 -84 109zM590 592q0 -27 45 -27h196q53 0 54 23q0 43 -65.5 152.5t-96.5 109.5q-37 0 -61 -68q-72 -135 -72 -190z" />
<glyph unicode="&#xc1;" horiz-adv-x="1693" d="M0 92q0 33 15.5 49.5t56.5 32.5q66 23 98.5 64t93.5 178l142 309q78 168 104.5 253t28.5 167q2 254 221 254q162 0 274 -160q117 -162 297 -547l191 -405q27 -57 44 -74.5t54 -24.5q74 -10 74 -69q0 -76 -87 -107.5t-288 -31.5q-219 0 -338 18q-47 10 -78 36.5t-31 61.5 t14.5 50.5t59.5 31.5q47 16 47 51q0 78 -108 84q-113 10 -203 11q-139 0 -176 -18.5t-37 -88.5q0 -18 19.5 -30.5t43 -18.5t43 -23.5t19.5 -46.5q0 -119 -289 -118q-168 0 -236.5 25.5t-68.5 86.5zM586 1548q0 39 51 78l61 45q25 14 25 39q0 8 -8 21.5t-8 21.5q0 27 45 43 t116 16q104 0 172 -31.5t68 -80.5q0 -43 -86 -109q-150 -117 -334 -116q-102 0 -102 73zM590 592q0 -27 45 -27h196q53 0 54 23q0 43 -65.5 152.5t-96.5 109.5q-37 0 -61 -68q-72 -135 -72 -190z" />
<glyph unicode="&#xc2;" horiz-adv-x="1693" d="M0 92q0 33 15.5 49.5t56.5 32.5q66 23 98.5 64t93.5 178l142 309q78 168 104.5 253t28.5 167q2 254 221 254q162 0 274 -160q117 -162 297 -547l191 -405q27 -57 44 -74.5t54 -24.5q74 -10 74 -69q0 -76 -87 -107.5t-288 -31.5q-219 0 -338 18q-47 10 -78 36.5t-31 61.5 t14.5 50.5t59.5 31.5q47 16 47 51q0 78 -108 84q-113 10 -203 11q-139 0 -176 -18.5t-37 -88.5q0 -18 19.5 -30.5t43 -18.5t43 -23.5t19.5 -46.5q0 -119 -289 -118q-168 0 -236.5 25.5t-68.5 86.5zM428 1548q0 80 161 186.5t208 106.5q68 0 226.5 -115.5t158.5 -175.5 q0 -33 -22.5 -55t-53.5 -22q-51 0 -151.5 53t-153.5 53q-43 0 -80 -18q-10 -4 -46 -26t-57.5 -32t-52 -21.5t-55.5 -11.5q-37 0 -59.5 21.5t-22.5 56.5zM590 592q0 -27 45 -27h196q53 0 54 23q0 43 -65.5 152.5t-96.5 109.5q-37 0 -61 -68q-72 -135 -72 -190z" />
<glyph unicode="&#xc3;" horiz-adv-x="1693" d="M0 92q0 33 15.5 49.5t56.5 32.5q66 23 98.5 64t93.5 178l142 309q78 168 104.5 253t28.5 167q2 254 221 254q162 0 274 -160q117 -162 297 -547l191 -405q27 -57 44 -74.5t54 -24.5q74 -10 74 -69q0 -76 -87 -107.5t-288 -31.5q-219 0 -338 18q-47 10 -78 36.5t-31 61.5 t14.5 50.5t59.5 31.5q47 16 47 51q0 78 -108 84q-113 10 -203 11q-139 0 -176 -18.5t-37 -88.5q0 -18 19.5 -30.5t43 -18.5t43 -23.5t19.5 -46.5q0 -119 -289 -118q-168 0 -236.5 25.5t-68.5 86.5zM348 1599q0 84 62.5 144.5t148.5 60.5t225 -49q8 -4 54.5 -22.5t78 -27.5 t56.5 -9q14 0 21 28.5t28.5 56t69.5 27.5q78 0 124 -29.5t46 -78.5q0 -80 -62.5 -138.5t-148.5 -58.5q-70 0 -183.5 42t-154.5 50q-10 2 -29.5 10.5t-37 12.5t-32.5 4q-23 0 -22 -25v-20q0 -74 -94 -74q-150 0 -150 96zM590 592q0 -27 45 -27h196q53 0 54 23 q0 43 -65.5 152.5t-96.5 109.5q-37 0 -61 -68q-72 -135 -72 -190z" />
<glyph unicode="&#xc4;" horiz-adv-x="1693" d="M0 92q0 33 15.5 49.5t56.5 32.5q66 23 98.5 64t93.5 178l142 309q78 168 104.5 253t28.5 167q2 254 221 254q162 0 274 -160q117 -162 297 -547l191 -405q27 -57 44 -74.5t54 -24.5q74 -10 74 -69q0 -76 -87 -107.5t-288 -31.5q-219 0 -338 18q-47 10 -78 36.5t-31 61.5 t14.5 50.5t59.5 31.5q47 16 47 51q0 78 -108 84q-113 10 -203 11q-139 0 -176 -18.5t-37 -88.5q0 -18 19.5 -30.5t43 -18.5t43 -23.5t19.5 -46.5q0 -119 -289 -118q-168 0 -236.5 25.5t-68.5 86.5zM295 1630q0 82 78 125t223 43q96 0 151.5 -32.5t55.5 -90.5 q0 -70 -92.5 -118t-229.5 -48q-80 0 -133 35t-53 86zM590 592q0 -27 45 -27h196q53 0 54 23q0 43 -65.5 152.5t-96.5 109.5q-37 0 -61 -68q-72 -135 -72 -190zM887 1630q0 82 78 125t223 43q96 0 151.5 -32.5t55.5 -90.5q0 -70 -92.5 -118t-229.5 -48q-80 0 -133 35t-53 86z " />
<glyph unicode="&#xc5;" horiz-adv-x="1693" d="M0 92q0 33 15.5 49.5t56.5 32.5q66 23 98.5 64t93.5 178l142 309q78 168 104.5 253t28.5 167q2 254 221 254q162 0 274 -160q117 -162 297 -547l191 -405q27 -57 44 -74.5t54 -24.5q74 -10 74 -69q0 -76 -87 -107.5t-288 -31.5q-219 0 -338 18q-47 10 -78 36.5t-31 61.5 t14.5 50.5t59.5 31.5q47 16 47 51q0 78 -108 84q-113 10 -203 11q-139 0 -176 -18.5t-37 -88.5q0 -18 19.5 -30.5t43 -18.5t43 -23.5t19.5 -46.5q0 -119 -289 -118q-168 0 -236.5 25.5t-68.5 86.5zM506 1673q0 96 77 151.5t214 55.5q145 0 226 -51t81 -143 q0 -100 -76 -155.5t-213 -55.5q-309 0 -309 198zM590 592q0 -27 45 -27h196q53 0 54 23q0 43 -65.5 152.5t-96.5 109.5q-37 0 -61 -68q-72 -135 -72 -190zM707 1673q0 -49 25.5 -78.5t68.5 -29.5q47 0 74.5 31.5t27.5 83t-25.5 80t-70.5 28.5q-47 0 -73.5 -31t-26.5 -84z " />
<glyph unicode="&#xc6;" horiz-adv-x="2119" d="M0 94q0 37 17.5 57.5t40 26.5t57.5 27.5t59 58.5q152 225 270 445l213 387q37 68 37 104l-2 49q0 72 52 95.5t214 23.5h666q111 0 180 23q39 14 54 14q68 0 115.5 -82t47.5 -197q0 -61 -29.5 -101t-74.5 -40q-33 0 -53.5 19.5t-40 48t-49 56.5t-99 47.5t-172.5 19.5 q-113 0 -143.5 -25t-30.5 -113v-157q0 -51 12.5 -64.5t59.5 -17.5l59 -2q45 0 64.5 33.5t19.5 72.5t19.5 73t66.5 34q119 0 119 -314q0 -135 -36 -217t-95 -82q-53 0 -66 84q-8 70 -35.5 96.5t-89.5 26.5q-47 0 -65.5 -23.5t-18.5 -84.5q0 -137 10.5 -194.5t39 -79 t96.5 -23.5l96 -2q123 0 198 43t126 149q39 84 96 84q45 0 72.5 -37t27.5 -96q0 -68 -33.5 -160t-80.5 -157q-31 -43 -82 -43q-27 0 -82 9t-84 9l-893 -4q-115 0 -115 84q0 61 74 92q57 25 57 59q0 33 -25.5 46.5t-90.5 15.5q-23 0 -69 1t-69 1q-78 0 -105.5 -12.5 t-27.5 -47.5q0 -20 18.5 -37.5t42 -27.5t42 -30.5t18.5 -49.5q0 -109 -297 -108q-303 0 -303 114zM657 592q0 -35 30 -48.5t112 -13.5q59 0 78.5 31t19.5 125v141q0 55 -9 75t-32 20q-20 0 -33.5 -14.5t-40.5 -61.5q-6 -10 -31.5 -53t-43 -75t-34 -69t-16.5 -57z" />
<glyph unicode="&#xc7;" horiz-adv-x="1474" d="M47 682q0 285 219 498t512 213q123 0 252 -47.5t143.5 -47.5t43 7.5t43.5 7.5q74 0 131 -102.5t57 -235.5q0 -92 -51 -149.5t-135 -57.5q-51 0 -90 36t-69 87t-66 101t-100.5 86t-152.5 36q-109 0 -169 -73.5t-60 -209.5q0 -199 115.5 -348t308.5 -149q76 0 140.5 20.5 t99 45t64.5 45t42 20.5q35 0 59.5 -32t24.5 -79q0 -102 -56.5 -178t-146.5 -92q-43 -10 -155.5 -53t-180.5 -51q-33 0 -32 -15q0 -2 1 -3t2 -5t3 -8l98 -195q31 -55 31 -92q0 -61 -59.5 -96t-161.5 -35q-121 0 -188.5 30.5t-67.5 84.5q0 51 36.5 72.5t81.5 21.5t82 11t37 44 q0 24 -12 51q-4 12 -12.5 38t-14.5 39.5t-15 30.5t-22.5 27.5t-29.5 14.5q-252 61 -416 247.5t-164 438.5z" />
<glyph unicode="&#xc8;" horiz-adv-x="1415" d="M27 1266q0 61 43 80.5t176 19.5h516q164 0 231.5 6t134.5 27q23 6 33 6q61 0 109.5 -84t48.5 -193q0 -66 -27.5 -102.5t-79.5 -36.5q-37 0 -56 19.5t-35.5 46t-44 54.5t-100.5 47.5t-188 19.5q-98 0 -130.5 -25t-32.5 -96l-2 -168q0 -61 20.5 -75.5t104.5 -14.5 q49 0 70.5 33.5t22.5 73.5t19.5 74t63.5 34q121 0 120 -297q0 -143 -35.5 -228.5t-95.5 -85.5q-37 0 -52 32t-18 71t-34 70.5t-94 31.5q-45 0 -61.5 -28.5t-16.5 -106.5q0 -190 28.5 -231t165.5 -41q160 0 237 37.5t128 140.5q29 59 50.5 78.5t58.5 19.5q43 0 69.5 -37 t26.5 -96q0 -78 -58.5 -220t-125.5 -142q-33 0 -110 10t-116 10h-848q-106 0 -106 86q0 29 17.5 46.5t39 24.5t45 30.5t33.5 62.5q33 164 33 405q0 389 -49 490q-4 10 -14.5 18t-15.5 11.5t-22.5 9.5t-19.5 8q-57 14 -57 74zM365 1700q0 47 66.5 79.5t164.5 32.5 q78 0 124 -16t46 -43q0 -8 -8 -21.5t-8 -21.5q0 -12 8 -23.5t15 -17.5t23.5 -16.5t18.5 -12.5q25 -18 34 -25t23.5 -26.5t14.5 -40.5q0 -74 -105 -73q-182 0 -333 116q-84 68 -84 109z" />
<glyph unicode="&#xc9;" horiz-adv-x="1415" d="M27 1266q0 61 43 80.5t176 19.5h516q164 0 231.5 6t134.5 27q23 6 33 6q61 0 109.5 -84t48.5 -193q0 -66 -27.5 -102.5t-79.5 -36.5q-37 0 -56 19.5t-35.5 46t-44 54.5t-100.5 47.5t-188 19.5q-98 0 -130.5 -25t-32.5 -96l-2 -168q0 -61 20.5 -75.5t104.5 -14.5 q49 0 70.5 33.5t22.5 73.5t19.5 74t63.5 34q121 0 120 -297q0 -143 -35.5 -228.5t-95.5 -85.5q-37 0 -52 32t-18 71t-34 70.5t-94 31.5q-45 0 -61.5 -28.5t-16.5 -106.5q0 -190 28.5 -231t165.5 -41q160 0 237 37.5t128 140.5q29 59 50.5 78.5t58.5 19.5q43 0 69.5 -37 t26.5 -96q0 -78 -58.5 -220t-125.5 -142q-33 0 -110 10t-116 10h-848q-106 0 -106 86q0 29 17.5 46.5t39 24.5t45 30.5t33.5 62.5q33 164 33 405q0 389 -49 490q-4 10 -14.5 18t-15.5 11.5t-22.5 9.5t-19.5 8q-57 14 -57 74zM446 1548q1 39 52 78l61 45q25 14 25 39 q0 8 -8.5 21.5t-8.5 21.5q0 27 45 43t117 16q104 0 172 -31.5t68 -80.5q0 -43 -86 -109q-150 -117 -334 -116q-102 0 -103 73z" />
<glyph unicode="&#xca;" horiz-adv-x="1415" d="M27 1266q0 61 43 80.5t176 19.5h516q164 0 231.5 6t134.5 27q23 6 33 6q61 0 109.5 -84t48.5 -193q0 -66 -27.5 -102.5t-79.5 -36.5q-37 0 -56 19.5t-35.5 46t-44 54.5t-100.5 47.5t-188 19.5q-98 0 -130.5 -25t-32.5 -96l-2 -168q0 -61 20.5 -75.5t104.5 -14.5 q49 0 70.5 33.5t22.5 73.5t19.5 74t63.5 34q121 0 120 -297q0 -143 -35.5 -228.5t-95.5 -85.5q-37 0 -52 32t-18 71t-34 70.5t-94 31.5q-45 0 -61.5 -28.5t-16.5 -106.5q0 -190 28.5 -231t165.5 -41q160 0 237 37.5t128 140.5q29 59 50.5 78.5t58.5 19.5q43 0 69.5 -37 t26.5 -96q0 -78 -58.5 -220t-125.5 -142q-33 0 -110 10t-116 10h-848q-106 0 -106 86q0 29 17.5 46.5t39 24.5t45 30.5t33.5 62.5q33 164 33 405q0 389 -49 490q-4 10 -14.5 18t-15.5 11.5t-22.5 9.5t-19.5 8q-57 14 -57 74zM330 1548q0 80 160.5 186.5t207.5 106.5 q68 0 226.5 -115.5t158.5 -175.5q0 -33 -22.5 -55t-52.5 -22q-51 0 -151.5 53t-154.5 53q-42 0 -79 -18q-10 -4 -46 -26t-57.5 -32t-52.5 -21.5t-55 -11.5q-37 0 -59.5 21.5t-22.5 56.5z" />
<glyph unicode="&#xcb;" horiz-adv-x="1415" d="M27 1266q0 61 43 80.5t176 19.5h516q164 0 231.5 6t134.5 27q23 6 33 6q61 0 109.5 -84t48.5 -193q0 -66 -27.5 -102.5t-79.5 -36.5q-37 0 -56 19.5t-35.5 46t-44 54.5t-100.5 47.5t-188 19.5q-98 0 -130.5 -25t-32.5 -96l-2 -168q0 -61 20.5 -75.5t104.5 -14.5 q49 0 70.5 33.5t22.5 73.5t19.5 74t63.5 34q121 0 120 -297q0 -143 -35.5 -228.5t-95.5 -85.5q-37 0 -52 32t-18 71t-34 70.5t-94 31.5q-45 0 -61.5 -28.5t-16.5 -106.5q0 -190 28.5 -231t165.5 -41q160 0 237 37.5t128 140.5q29 59 50.5 78.5t58.5 19.5q43 0 69.5 -37 t26.5 -96q0 -78 -58.5 -220t-125.5 -142q-33 0 -110 10t-116 10h-848q-106 0 -106 86q0 29 17.5 46.5t39 24.5t45 30.5t33.5 62.5q33 164 33 405q0 389 -49 490q-4 10 -14.5 18t-15.5 11.5t-22.5 9.5t-19.5 8q-57 14 -57 74zM156 1630q0 82 78 125t223 43q96 0 151.5 -32.5 t55.5 -90.5q0 -70 -92.5 -118t-229.5 -48q-80 0 -133 35t-53 86zM748 1630q0 82 78 125t223 43q96 0 151 -32.5t55 -90.5q0 -70 -92 -118t-229 -48q-80 0 -133 35t-53 86z" />
<glyph unicode="&#xcc;" horiz-adv-x="845" d="M27 1247q0 45 53 75t136 43t142.5 17t110.5 4q350 0 350 -131q0 -49 -45 -69l-37 -21q-47 -23 -61 -101.5t-14 -303.5q0 -53 2 -78l4 -256q2 -115 17 -152.5t69 -64.5q66 -31 65 -84q0 -145 -430 -145q-340 0 -340 120q0 51 62 86q45 29 58 76t15 193l4 245v56 q0 221 -16 291.5t-76 109.5q-41 27 -55 45.5t-14 44.5zM162 1700q0 47 66.5 79.5t164.5 32.5q78 0 124 -16t46 -43q0 -8 -8 -21.5t-8 -21.5q0 -12 8 -23.5t15.5 -17.5t23.5 -16.5t18 -12.5q25 -18 34 -25t23.5 -26.5t14.5 -40.5q0 -74 -104 -73q-182 0 -334 116 q-84 68 -84 109z" />
<glyph unicode="&#xcd;" horiz-adv-x="845" d="M27 1247q0 45 53 75t136 43t142.5 17t110.5 4q350 0 350 -131q0 -49 -45 -69l-37 -21q-47 -23 -61 -101.5t-14 -303.5q0 -53 2 -78l4 -256q2 -115 17 -152.5t69 -64.5q66 -31 65 -84q0 -145 -430 -145q-340 0 -340 120q0 51 62 86q45 29 58 76t15 193l4 245v56 q0 221 -16 291.5t-76 109.5q-41 27 -55 45.5t-14 44.5zM162 1548q0 39 51 78l61 45q25 14 25 39q0 8 -8 21.5t-8 21.5q0 27 45 43t116 16q104 0 172 -31.5t68 -80.5q0 -43 -86 -109q-150 -117 -334 -116q-102 0 -102 73z" />
<glyph unicode="&#xce;" horiz-adv-x="845" d="M27 1247q0 45 53 75t136 43t142.5 17t110.5 4q350 0 350 -131q0 -49 -45 -69l-37 -21q-47 -23 -61 -101.5t-14 -303.5q0 -53 2 -78l4 -256q2 -115 17 -152.5t69 -64.5q66 -31 65 -84q0 -145 -430 -145q-340 0 -340 120q0 51 62 86q45 29 58 76t15 193l4 245v56 q0 221 -16 291.5t-76 109.5q-41 27 -55 45.5t-14 44.5zM45 1548q0 80 161 186.5t208 106.5q68 0 226.5 -115.5t158.5 -175.5q0 -33 -22.5 -55t-53.5 -22q-51 0 -151.5 53t-153.5 53q-43 0 -80 -18q-10 -4 -46 -26t-57.5 -32t-52 -21.5t-55.5 -11.5q-37 0 -59.5 21.5 t-22.5 56.5z" />
<glyph unicode="&#xcf;" horiz-adv-x="845" d="M-129 1647q0 82 78 125t223 43q96 0 151.5 -33t55.5 -90q0 -70 -92 -118t-230 -48q-80 0 -133 34.5t-53 86.5zM27 1247q0 45 53 75t136 43t142.5 17t110.5 4q350 0 350 -131q0 -49 -45 -69l-37 -21q-47 -23 -61 -101.5t-14 -303.5q0 -53 2 -78l4 -256q2 -115 17 -152.5 t69 -64.5q66 -31 65 -84q0 -145 -430 -145q-340 0 -340 120q0 51 62 86q45 29 58 76t15 193l4 245v56q0 221 -16 291.5t-76 109.5q-41 27 -55 45.5t-14 44.5zM463 1647q0 82 78 125t223 43q96 0 151.5 -33t55.5 -90q0 -70 -92.5 -118t-229.5 -48q-80 0 -133 34.5t-53 86.5z " />
<glyph unicode="&#xd0;" horiz-adv-x="1642" d="M27 100q0 66 79 86q45 12 59.5 43t18.5 119l11 205q2 16 2 38.5t-6.5 29t-30.5 6.5h-62q-72 0 -71 61q0 63 82 64h55q23 0 29 5t6 21q0 41 2 125t2 125q0 88 -13.5 115.5t-60.5 44.5q-70 25 -70 88q0 104 183 104q31 0 91 -2t91 -2q68 0 205 6.5t205 6.5q186 0 303.5 -31 t212.5 -103q246 -186 245 -561q0 -315 -191.5 -510.5t-496.5 -195.5q-45 0 -131 4q-250 8 -373 8q-37 0 -109.5 -5t-109.5 -5q-72 0 -114.5 29.5t-42.5 80.5zM670 309q0 -66 26.5 -91t94.5 -25q139 0 213.5 110.5t74.5 321.5q0 281 -77.5 411.5t-243.5 130.5 q-49 0 -68.5 -18.5t-19.5 -65.5v-288q0 -29 6 -36t33 -7h114q59 0 60 -60q0 -66 -84 -65h-84q-31 0 -38 -10.5t-7 -49.5v-258z" />
<glyph unicode="&#xd1;" horiz-adv-x="1699" d="M27 1251q0 76 77.5 105.5t272.5 29.5q90 0 126 -11t87 -56l497 -436q70 -63 99 -64q55 0 55 113q0 125 -15.5 171t-62.5 68q-72 35 -71 91q0 72 60 98t216 26q172 0 238.5 -26.5t66.5 -95.5q0 -66 -76 -99q-53 -23 -70.5 -83t-17.5 -220v-327v-193q0 -203 -26.5 -282.5 t-91.5 -79.5q-10 0 -20.5 2t-22 7t-18.5 8t-18.5 12t-15.5 12.5t-17 15.5t-15 14l-594 533q-61 55 -103 55q-61 0 -61 -168q0 -139 15.5 -190.5t64.5 -75.5q66 -33 65 -88q0 -137 -305 -137q-129 0 -202.5 35.5t-73.5 99.5q0 55 75 98q45 27 59.5 122t14.5 349 q0 311 -43 414q-8 23 -33.5 42t-50 30.5t-45 32t-20.5 48.5zM393 1599q0 84 62.5 144.5t148.5 60.5t225 -49q8 -4 54.5 -22.5t78 -27.5t56.5 -9q14 0 21.5 28.5t29 56t68.5 27.5q78 0 124 -29.5t46 -78.5q0 -80 -62.5 -138.5t-148.5 -58.5q-70 0 -183.5 42t-154.5 50 q-10 2 -29.5 10.5t-37 12.5t-32.5 4q-23 0 -22 -25v-20q0 -74 -94 -74q-150 0 -150 96z" />
<glyph unicode="&#xd2;" horiz-adv-x="1593" d="M47 690q0 293 213 498t518 205q291 0 477 -146q133 -104 212 -264t79 -328q0 -287 -225 -484.5t-553 -197.5q-305 0 -513 207t-208 510zM453 1700q0 47 66.5 79.5t164.5 32.5q78 0 124 -16t46 -43q0 -8 -8 -21.5t-8 -21.5q0 -12 8 -23.5t15 -17.5t23.5 -16.5t18.5 -12.5 q25 -18 34 -25t23.5 -26.5t14.5 -40.5q0 -74 -105 -73q-182 0 -333 116q-84 68 -84 109zM541 891q0 -66 22.5 -167t62.5 -205.5t105.5 -178.5t138.5 -74q78 0 124 57.5t46 151.5q0 74 -20.5 176.5t-58 207t-105 177t-149.5 72.5q-72 0 -119 -61.5t-47 -155.5z" />
<glyph unicode="&#xd3;" horiz-adv-x="1593" d="M47 690q0 293 213 498t518 205q291 0 477 -146q133 -104 212 -264t79 -328q0 -287 -225 -484.5t-553 -197.5q-305 0 -513 207t-208 510zM535 1548q0 39 51 78l61 45q25 14 25 39q0 8 -8.5 21.5t-8.5 21.5q0 27 45 43t117 16q104 0 172 -31.5t68 -80.5q0 -43 -86 -109 q-150 -117 -334 -116q-102 0 -102 73zM541 891q0 -66 22.5 -167t62.5 -205.5t105.5 -178.5t138.5 -74q78 0 124 57.5t46 151.5q0 74 -20.5 176.5t-58 207t-105 177t-149.5 72.5q-72 0 -119 -61.5t-47 -155.5z" />
<glyph unicode="&#xd4;" horiz-adv-x="1593" d="M47 690q0 293 213 498t518 205q291 0 477 -146q133 -104 212 -264t79 -328q0 -287 -225 -484.5t-553 -197.5q-305 0 -513 207t-208 510zM420 1548q0 80 160.5 186.5t207.5 106.5q68 0 227 -115.5t159 -175.5q0 -33 -23 -55t-53 -22q-51 0 -151.5 53t-153.5 53 q-43 0 -80 -18q-10 -4 -46 -26t-57.5 -32t-52.5 -21.5t-55 -11.5q-37 0 -59.5 21.5t-22.5 56.5zM541 891q0 -66 22.5 -167t62.5 -205.5t105.5 -178.5t138.5 -74q78 0 124 57.5t46 151.5q0 74 -20.5 176.5t-58 207t-105 177t-149.5 72.5q-72 0 -119 -61.5t-47 -155.5z" />
<glyph unicode="&#xd5;" horiz-adv-x="1593" d="M47 690q0 293 213 498t518 205q291 0 477 -146q133 -104 212 -264t79 -328q0 -287 -225 -484.5t-553 -197.5q-305 0 -513 207t-208 510zM340 1599q0 84 62.5 144.5t148.5 60.5t225 -49q8 -4 54.5 -22.5t78 -27.5t56.5 -9q14 0 21 28.5t28.5 56t68.5 27.5q78 0 124 -29.5 t46 -78.5q0 -80 -62.5 -138.5t-148.5 -58.5q-70 0 -183.5 42t-153.5 50q-10 2 -30 10.5t-37 12.5t-32 4q-23 0 -22 -25v-20q0 -74 -95 -74q-150 0 -149 96zM541 891q0 -66 22.5 -167t62.5 -205.5t105.5 -178.5t138.5 -74q78 0 124 57.5t46 151.5q0 74 -20.5 176.5t-58 207 t-105 177t-149.5 72.5q-72 0 -119 -61.5t-47 -155.5z" />
<glyph unicode="&#xd6;" horiz-adv-x="1593" d="M47 690q0 293 213 498t518 205q291 0 477 -146q133 -104 212 -264t79 -328q0 -287 -225 -484.5t-553 -197.5q-305 0 -513 207t-208 510zM246 1630q0 82 78 125t223 43q96 0 151.5 -32.5t55.5 -90.5q0 -70 -92.5 -118t-229.5 -48q-80 0 -133 35t-53 86zM541 891 q0 -66 22.5 -167t62.5 -205.5t105.5 -178.5t138.5 -74q78 0 124 57.5t46 151.5q0 74 -20.5 176.5t-58 207t-105 177t-149.5 72.5q-72 0 -119 -61.5t-47 -155.5zM838 1630q0 82 78 125t223 43q96 0 151.5 -32.5t55.5 -90.5q0 -70 -92.5 -118t-229.5 -48q-80 0 -133 35t-53 86 z" />
<glyph unicode="&#xd7;" d="M205 315q0 27 41 68l151 152q35 35 35 51t-35 51l-164 164q-29 27 -28 51q0 8 7 21.5t21.5 27.5t25.5 26.5t27.5 28t22.5 21.5q18 18 39 18q23 0 51 -28l164 -164q35 -35 51.5 -35t51.5 35l151 151q39 39 68 39q8 0 20.5 -8t26.5 -21.5t26.5 -25.5t25.5 -26.5t17 -18.5 q20 -18 21 -39q0 -27 -39 -66l-152 -151q-35 -37 -34 -51q0 -16 34 -51l164 -164q29 -33 29 -52q0 -20 -56.5 -81.5t-88.5 -61.5q-20 0 -50 29l-163 164q-35 35 -51.5 34.5t-51.5 -34.5l-151 -152q-41 -41 -68 -41q-23 0 -81 58.5t-58 80.5z" />
<glyph unicode="&#xd8;" horiz-adv-x="1593" d="M49 684q0 305 209 507t524 202q143 0 281.5 -47.5t216.5 -122.5q10 -10 18 -11q6 0 15 9l117 98q10 10 28 10q8 0 18.5 -6t15.5 -11t14.5 -17.5t11.5 -14.5q12 -25 12 -29q0 -12 -21 -32l-108 -93q-10 -8 -10 -14q0 -4 6 -12t6 -10q143 -182 143 -420q0 -301 -222 -499 t-558 -198q-117 0 -253 50.5t-212 121.5q-12 10 -16 11q-6 0 -8.5 -2t-8.5 -7q-2 -2 -36.5 -34.5t-60.5 -51t-40 -18.5q-23 0 -46.5 24.5t-23.5 47.5q0 12 16.5 31.5t34 34t42 33.5t28.5 24q12 12 13 14l-7 12q-66 82 -102.5 196.5t-36.5 223.5zM545 895q-1 -61 22 -170 q25 -109 41 -109q10 0 35 21l256 225q35 29 35 45q0 55 -79 128t-146 73q-70 0 -117 -61.5t-47 -151.5zM659 471q0 -59 73 -131t140 -72q78 0 124 55.5t46 151.5q1 95 -22 189l-8 41q-12 53 -27 53q-6 0 -35 -23l-256 -221q-35 -31 -35 -43z" />
<glyph unicode="&#xd9;" horiz-adv-x="1679" d="M29 1253q0 133 379 133q203 0 294 -31.5t91 -101.5q0 -27 -16.5 -48t-30 -28.5t-46 -21.5t-44 -51t-11.5 -121q0 -104 -2 -141l-6 -219q0 -164 73.5 -259.5t233.5 -95.5q283 0 283 328v221l-2 174q-4 102 -17.5 136t-58.5 55q-51 23 -70.5 42t-19.5 46q0 61 70.5 88.5 t224.5 27.5q160 0 229.5 -26.5t69.5 -85.5q0 -29 -11.5 -43t-62.5 -43q-43 -25 -55.5 -53.5t-14.5 -104.5v-164v-243q0 -152 -14 -233t-49 -142q-84 -147 -254 -211t-369 -64q-311 0 -504 154q-96 76 -130.5 175t-34.5 298q0 63 4 188t4 189q0 90 -11.5 121.5t-56.5 58.5 q-66 43 -65 96zM580 1700q0 47 66.5 79.5t164.5 32.5q78 0 124 -16t46 -43q0 -8 -8 -21.5t-8 -21.5q0 -12 8 -23.5t15 -17.5t23.5 -16.5t18.5 -12.5q25 -18 34 -25t23.5 -26.5t14.5 -40.5q0 -74 -105 -73q-182 0 -333 116q-84 68 -84 109z" />
<glyph unicode="&#xda;" horiz-adv-x="1679" d="M29 1253q0 133 379 133q203 0 294 -31.5t91 -101.5q0 -27 -16.5 -48t-30 -28.5t-46 -21.5t-44 -51t-11.5 -121q0 -104 -2 -141l-6 -219q0 -164 73.5 -259.5t233.5 -95.5q283 0 283 328v221l-2 174q-4 102 -17.5 136t-58.5 55q-51 23 -70.5 42t-19.5 46q0 61 70.5 88.5 t224.5 27.5q160 0 229.5 -26.5t69.5 -85.5q0 -29 -11.5 -43t-62.5 -43q-43 -25 -55.5 -53.5t-14.5 -104.5v-164v-243q0 -152 -14 -233t-49 -142q-84 -147 -254 -211t-369 -64q-311 0 -504 154q-96 76 -130.5 175t-34.5 298q0 63 4 188t4 189q0 90 -11.5 121.5t-56.5 58.5 q-66 43 -65 96zM580 1548q0 39 51 78l61 45q25 14 25 39q0 8 -8.5 21.5t-8.5 21.5q0 27 45.5 43t116.5 16q104 0 172 -31.5t68 -80.5q0 -43 -86 -109q-150 -117 -334 -116q-102 0 -102 73z" />
<glyph unicode="&#xdb;" horiz-adv-x="1679" d="M29 1253q0 133 379 133q203 0 294 -31.5t91 -101.5q0 -27 -16.5 -48t-30 -28.5t-46 -21.5t-44 -51t-11.5 -121q0 -104 -2 -141l-6 -219q0 -164 73.5 -259.5t233.5 -95.5q283 0 283 328v221l-2 174q-4 102 -17.5 136t-58.5 55q-51 23 -70.5 42t-19.5 46q0 61 70.5 88.5 t224.5 27.5q160 0 229.5 -26.5t69.5 -85.5q0 -29 -11.5 -43t-62.5 -43q-43 -25 -55.5 -53.5t-14.5 -104.5v-164v-243q0 -152 -14 -233t-49 -142q-84 -147 -254 -211t-369 -64q-311 0 -504 154q-96 76 -130.5 175t-34.5 298q0 63 4 188t4 189q0 90 -11.5 121.5t-56.5 58.5 q-66 43 -65 96zM465 1548q0 80 160.5 186.5t208.5 106.5q68 0 226.5 -115.5t158.5 -175.5q0 -33 -22.5 -55t-53.5 -22q-51 0 -151.5 53t-153.5 53q-43 0 -80 -18q-10 -4 -46 -26t-57.5 -32t-52.5 -21.5t-55 -11.5q-37 0 -59.5 21.5t-22.5 56.5z" />
<glyph unicode="&#xdc;" horiz-adv-x="1679" d="M29 1253q0 133 379 133q203 0 294 -31.5t91 -101.5q0 -27 -16.5 -48t-30 -28.5t-46 -21.5t-44 -51t-11.5 -121q0 -104 -2 -141l-6 -219q0 -164 73.5 -259.5t233.5 -95.5q283 0 283 328v221l-2 174q-4 102 -17.5 136t-58.5 55q-51 23 -70.5 42t-19.5 46q0 61 70.5 88.5 t224.5 27.5q160 0 229.5 -26.5t69.5 -85.5q0 -29 -11.5 -43t-62.5 -43q-43 -25 -55.5 -53.5t-14.5 -104.5v-164v-243q0 -152 -14 -233t-49 -142q-84 -147 -254 -211t-369 -64q-311 0 -504 154q-96 76 -130.5 175t-34.5 298q0 63 4 188t4 189q0 90 -11.5 121.5t-56.5 58.5 q-66 43 -65 96zM289 1630q0 82 78 125t223 43q96 0 151.5 -32.5t55.5 -90.5q0 -70 -92.5 -118t-229.5 -48q-80 0 -133 35t-53 86zM881 1630q0 82 78 125t223 43q96 0 151.5 -32.5t55.5 -90.5q0 -70 -92.5 -118t-229.5 -48q-80 0 -133 35t-53 86z" />
<glyph unicode="&#xdd;" horiz-adv-x="1597" d="M0 1255q0 57 54.5 85t183.5 38q92 8 202 8q219 0 310.5 -25.5t91.5 -86.5q0 -25 -27 -59.5t-27 -57.5q0 -37 44.5 -101.5t80.5 -64.5q27 0 80.5 51.5t53.5 98.5q-1 27 -13 41q-45 49 -45 86q0 63 73 90.5t241 27.5q180 0 237 -23.5t57 -94.5q0 -39 -25.5 -59.5 t-86.5 -30.5q-57 -10 -102.5 -46t-149.5 -151q-141 -156 -173 -220.5t-32 -205.5q0 -25 1 -50.5t3 -57t2 -50.5q4 -96 17.5 -128.5t64.5 -57.5q72 -39 72 -92q0 -139 -416 -139q-422 0 -422 137q0 66 76 90q66 25 84 89t18 279q0 90 -14 132.5t-72 117.5q-180 229 -268 295 q-37 29 -65 39q-72 27 -90.5 43.5t-18.5 52.5zM592 1548q0 39 51 78l62 45q25 14 24 39q0 8 -8 21.5t-8 21.5q0 27 45 43t116 16q104 0 172 -31.5t68 -80.5q0 -43 -86 -109q-150 -117 -334 -116q-102 0 -102 73z" />
<glyph unicode="&#xde;" horiz-adv-x="1400" d="M27 1260q0 96 147 96q39 0 115 -3t114 -3q35 0 102.5 3t102.5 3q33 0 43.5 -9.5t10.5 -37.5q0 -18 -3.5 -56.5t-3.5 -56.5q0 -80 23 -80q31 0 88 14.5t88 14.5q231 0 375.5 -112.5t144.5 -297.5q0 -188 -144.5 -307t-371.5 -119q-31 0 -88 5t-88 5t-31 -32v-6 q0 -25 2 -27q6 -23 31 -40t51.5 -26.5t47 -29t20.5 -45.5q0 -133 -379 -133q-358 0 -358 126q0 45 55 74q18 8 30.5 17.5t21.5 15.5t15.5 19.5t10.5 17.5t5 22.5t2 23.5t1 31.5v34.5v109v526q0 102 -14.5 130t-75.5 44q-90 25 -90 89zM657 594q0 -35 18.5 -48.5t69.5 -13.5 q84 0 132.5 51.5t48.5 143.5q0 94 -53.5 149.5t-141.5 55.5q-74 0 -74 -39v-299z" />
<glyph unicode="&#xdf;" horiz-adv-x="1320" d="M20 98q0 33 19.5 54.5t42 35t42 57.5t19.5 120v378q0 266 121 406q170 193 481 192q143 0 233.5 -69.5t90.5 -179.5q0 -51 -29.5 -99.5t-29.5 -64.5q0 -33 44 -104.5t98 -148.5t98 -183.5t44 -200.5q0 -139 -91 -225t-238 -86q-80 0 -162 49t-82 125q0 14 28.5 29.5 t58.5 44t30 73.5q0 84 -102.5 235.5t-102.5 231.5q0 72 27.5 115t125.5 125q39 33 39 63q0 70 -86 70q-92 0 -137 -92q-53 -106 -53 -340q0 -98 6 -181q2 -16 3 -78.5t4 -98.5t17.5 -82t38.5 -70l13.5 -13.5l15.5 -15.5t11.5 -13.5t9.5 -18.5t2 -19q0 -66 -95.5 -102.5 t-269.5 -36.5q-285 0 -285 118z" />
<glyph unicode="&#xe0;" horiz-adv-x="1161" d="M29 240q0 88 45 153.5t118.5 100t151.5 51t160 16.5q59 2 73.5 12.5t14.5 55.5q0 199 -92 198q-37 0 -73 -32.5t-60.5 -72.5t-67.5 -73t-94 -33q-49 0 -82 29t-33 70q0 68 56.5 125t139.5 90t163.5 50t142.5 17q195 0 313 -88q68 -49 91.5 -108t23.5 -178q0 -23 -1 -68 t-1 -68q0 -123 14.5 -177t48.5 -60q53 -8 54 -45q0 -96 -97.5 -164t-195.5 -68q-59 0 -101.5 25t-67 49.5t-38.5 24.5q-4 0 -98.5 -49.5t-180.5 -49.5q-143 0 -235 75t-92 192zM322 1319q0 47 66.5 80t164.5 33q78 0 124 -16.5t46 -43.5q0 -8 -8 -21.5t-8 -21.5 q0 -12 8 -23.5t15 -17.5t23.5 -16t18.5 -12q25 -18 34 -25.5t23.5 -27t14.5 -40.5q0 -74 -105 -73q-182 0 -333 116q-84 68 -84 109zM434 295q0 -47 23.5 -77t60.5 -30q80 0 80 138q0 53 -11.5 73.5t-43.5 20.5q-45 0 -77 -37t-32 -88z" />
<glyph unicode="&#xe1;" horiz-adv-x="1161" d="M29 240q0 88 45 153.5t118.5 100t151.5 51t160 16.5q59 2 73.5 12.5t14.5 55.5q0 199 -92 198q-37 0 -73 -32.5t-60.5 -72.5t-67.5 -73t-94 -33q-49 0 -82 29t-33 70q0 68 56.5 125t139.5 90t163.5 50t142.5 17q195 0 313 -88q68 -49 91.5 -108t23.5 -178q0 -23 -1 -68 t-1 -68q0 -123 14.5 -177t48.5 -60q53 -8 54 -45q0 -96 -97.5 -164t-195.5 -68q-59 0 -101.5 25t-67 49.5t-38.5 24.5q-4 0 -98.5 -49.5t-180.5 -49.5q-143 0 -235 75t-92 192zM322 1167q0 39 51 78l61 45q25 14 25 39q0 8 -8.5 21.5t-8.5 21.5q0 27 45 43.5t117 16.5 q104 0 172 -32t68 -81q0 -43 -86 -109q-150 -117 -334 -116q-102 0 -102 73zM434 295q0 -47 23.5 -77t60.5 -30q80 0 80 138q0 53 -11.5 73.5t-43.5 20.5q-45 0 -77 -37t-32 -88z" />
<glyph unicode="&#xe2;" horiz-adv-x="1161" d="M29 240q0 88 45 153.5t118.5 100t151.5 51t160 16.5q59 2 73.5 12.5t14.5 55.5q0 199 -92 198q-37 0 -73 -32.5t-60.5 -72.5t-67.5 -73t-94 -33q-49 0 -82 29t-33 70q0 68 56.5 125t139.5 90t163.5 50t142.5 17q195 0 313 -88q68 -49 91.5 -108t23.5 -178q0 -23 -1 -68 t-1 -68q0 -123 14.5 -177t48.5 -60q53 -8 54 -45q0 -96 -97.5 -164t-195.5 -68q-59 0 -101.5 25t-67 49.5t-38.5 24.5q-4 0 -98.5 -49.5t-180.5 -49.5q-143 0 -235 75t-92 192zM205 1171q0 80 160.5 186.5t207.5 106.5q68 0 226.5 -115.5t158.5 -174.5q0 -33 -22.5 -55.5 t-52.5 -22.5q-51 0 -151.5 53t-153.5 53q-43 0 -80 -18q-10 -4 -46 -25.5t-57.5 -32t-52.5 -21.5t-55 -11q-37 0 -59.5 21.5t-22.5 55.5zM434 295q0 -47 23.5 -77t60.5 -30q80 0 80 138q0 53 -11.5 73.5t-43.5 20.5q-45 0 -77 -37t-32 -88z" />
<glyph unicode="&#xe3;" horiz-adv-x="1161" d="M29 240q0 88 45 153.5t118.5 100t151.5 51t160 16.5q59 2 73.5 12.5t14.5 55.5q0 199 -92 198q-37 0 -73 -32.5t-60.5 -72.5t-67.5 -73t-94 -33q-49 0 -82 29t-33 70q0 68 56.5 125t139.5 90t163.5 50t142.5 17q195 0 313 -88q68 -49 91.5 -108t23.5 -178q0 -23 -1 -68 t-1 -68q0 -123 14.5 -177t48.5 -60q53 -8 54 -45q0 -96 -97.5 -164t-195.5 -68q-59 0 -101.5 25t-67 49.5t-38.5 24.5q-4 0 -98.5 -49.5t-180.5 -49.5q-143 0 -235 75t-92 192zM125 1210q0 84 62.5 144.5t148.5 60.5t225 -49q8 -4 54.5 -22.5t78 -27.5t56.5 -9q14 0 21 28.5 t28.5 56t68.5 27.5q78 0 124 -29.5t46 -78.5q0 -80 -62.5 -138.5t-148.5 -58.5q-70 0 -183.5 42t-154.5 50q-10 2 -29.5 10.5t-36.5 12.5t-32 4q-23 0 -22 -25v-20q0 -74 -95 -74q-150 0 -149 96zM434 295q0 -47 23.5 -77t60.5 -30q80 0 80 138q0 53 -11.5 73.5t-43.5 20.5 q-45 0 -77 -37t-32 -88z" />
<glyph unicode="&#xe4;" horiz-adv-x="1161" d="M29 240q0 88 45 153.5t118.5 100t151.5 51t160 16.5q59 2 73.5 12.5t14.5 55.5q0 199 -92 198q-37 0 -73 -32.5t-60.5 -72.5t-67.5 -73t-94 -33q-49 0 -82 29t-33 70q0 68 56.5 125t139.5 90t163.5 50t142.5 17q195 0 313 -88q68 -49 91.5 -108t23.5 -178q0 -23 -1 -68 t-1 -68q0 -123 14.5 -177t48.5 -60q53 -8 54 -45q0 -96 -97.5 -164t-195.5 -68q-59 0 -101.5 25t-67 49.5t-38.5 24.5q-4 0 -98.5 -49.5t-180.5 -49.5q-143 0 -235 75t-92 192zM31 1239q0 82 78 125t223 43q96 0 151.5 -33t55.5 -90q0 -70 -92.5 -118t-229.5 -48 q-80 0 -133 35t-53 86zM434 295q0 -47 23.5 -77t60.5 -30q80 0 80 138q0 53 -11.5 73.5t-43.5 20.5q-45 0 -77 -37t-32 -88zM623 1239q0 82 78 125t223 43q96 0 151 -33t55 -90q0 -70 -92 -118t-229 -48q-80 0 -133 35t-53 86z" />
<glyph unicode="&#xe5;" horiz-adv-x="1161" d="M29 240q0 88 45 153.5t118.5 100t151.5 51t160 16.5q59 2 73.5 12.5t14.5 55.5q0 199 -92 198q-37 0 -73 -32.5t-60.5 -72.5t-67.5 -73t-94 -33q-49 0 -82 29t-33 70q0 68 56.5 125t139.5 90t163.5 50t142.5 17q195 0 313 -88q68 -49 91.5 -108t23.5 -178q0 -23 -1 -68 t-1 -68q0 -123 14.5 -177t48.5 -60q53 -8 54 -45q0 -96 -97.5 -164t-195.5 -68q-59 0 -101.5 25t-67 49.5t-38.5 24.5q-4 0 -98.5 -49.5t-180.5 -49.5q-143 0 -235 75t-92 192zM283 1292q0 96 76.5 151.5t213.5 55.5q145 0 226.5 -51t81.5 -143q0 -100 -76 -155.5 t-213 -55.5q-309 0 -309 198zM434 295q0 -47 23.5 -77t60.5 -30q80 0 80 138q0 53 -11.5 73.5t-43.5 20.5q-45 0 -77 -37t-32 -88zM483 1292q0 -49 26 -78.5t69 -29.5q47 0 74.5 31.5t27.5 83t-25.5 80t-70.5 28.5q-47 0 -74 -30.5t-27 -84.5z" />
<glyph unicode="&#xe6;" horiz-adv-x="1636" d="M27 242q0 86 48 156.5t136 109.5q72 35 130 46t187 15q31 2 41.5 15.5t10.5 56.5q0 195 -99 195q-37 0 -70.5 -34t-58 -76t-67.5 -76t-95 -34q-47 0 -80.5 29t-33.5 70q0 109 158.5 195.5t357.5 86.5q143 0 233 -43q18 -10 29 -10q164 53 270 53q205 0 345.5 -113.5 t140.5 -279.5q0 -72 -27 -103.5t-88 -31.5h-446q-23 0 -29 -5t-6 -22q0 -72 70.5 -130t158.5 -58q45 0 107.5 21.5t99.5 48.5q35 25 51 24q23 0 45 -31q33 -47 33 -75q0 -76 -88 -140.5t-192.5 -96.5t-182.5 -32q-53 0 -108.5 12.5t-96.5 30t-74.5 35t-54.5 29.5l-18 12 q-6 0 -33 -14q-88 -45 -198.5 -75t-190.5 -30q-143 0 -229 74t-86 195zM430 299q0 -41 24.5 -72.5t57.5 -31.5q80 0 80 141v12t-1 12.5t-1 12.5t-1 12t-3 11t-5 10.5t-7.5 7.5t-8.5 6t-11 4t-15 2q-47 0 -78 -36t-31 -91zM1004 698q0 -27 12 -36t45 -9h125q29 0 39 11.5 t10 42.5q0 53 -32 87.5t-79 34.5q-51 0 -85.5 -38.5t-34.5 -92.5z" />
<glyph unicode="&#xe7;" horiz-adv-x="1077" d="M35 473q0 219 165 371.5t404 152.5q186 0 316.5 -87t130.5 -214q0 -82 -54.5 -137t-138.5 -55q-66 0 -102.5 38t-47 83t-39 82.5t-75.5 37.5q-57 0 -95 -49t-38 -127q0 -115 78.5 -196.5t189.5 -81.5q63 0 118.5 25.5t78.5 25.5q35 0 61.5 -31.5t26.5 -74.5 q0 -102 -127 -181.5t-238 -79.5q-14 -4 -14 -12q0 -12 41 -45t82 -75t41 -74q0 -53 -59.5 -88t-151.5 -35q-74 0 -125 28.5t-51 69.5q0 61 104 78q27 6 26.5 22t-18.5 41q-4 6 -20.5 30t-24.5 33t-24.5 22.5t-34.5 17.5q-166 41 -275.5 178t-109.5 307z" />
<glyph unicode="&#xe8;" horiz-adv-x="1085" d="M35 465q0 223 155.5 377.5t378.5 154.5q203 0 336 -108q70 -55 112 -135t42 -152q0 -70 -25.5 -111.5t-70.5 -41.5h-469q-31 0 -31 -27q0 -74 72.5 -127t148.5 -53q115 0 203 63q37 25 53 25q31 0 54.5 -34t23.5 -67q0 -70 -90 -137q-158 -119 -375 -119t-367.5 143.5 t-150.5 348.5zM283 1319q0 47 66.5 80t164.5 33q78 0 124 -16.5t46 -43.5q0 -8 -8 -21.5t-8 -21.5q0 -12 8 -23.5t15 -17.5t23.5 -16t18.5 -12q25 -18 34 -25.5t23.5 -27t14.5 -40.5q0 -74 -105 -73q-182 0 -333 116q-84 68 -84 109zM455 690q0 -31 14 -43t49 -12h103 q63 0 63 59q0 53 -30.5 88t-80.5 35q-47 0 -82.5 -38t-35.5 -89z" />
<glyph unicode="&#xe9;" horiz-adv-x="1085" d="M35 465q0 223 155.5 377.5t378.5 154.5q203 0 336 -108q70 -55 112 -135t42 -152q0 -70 -25.5 -111.5t-70.5 -41.5h-469q-31 0 -31 -27q0 -74 72.5 -127t148.5 -53q115 0 203 63q37 25 53 25q31 0 54.5 -34t23.5 -67q0 -70 -90 -137q-158 -119 -375 -119t-367.5 143.5 t-150.5 348.5zM338 1167q0 39 51 78l62 45q25 14 24 39q0 8 -8 21.5t-8 21.5q0 27 45 43.5t117 16.5q104 0 171.5 -32t67.5 -81q0 -43 -86 -109q-150 -117 -334 -116q-102 0 -102 73zM455 690q0 -31 14 -43t49 -12h103q63 0 63 59q0 53 -30.5 88t-80.5 35q-47 0 -82.5 -38 t-35.5 -89z" />
<glyph unicode="&#xea;" horiz-adv-x="1085" d="M35 465q0 223 155.5 377.5t378.5 154.5q203 0 336 -108q70 -55 112 -135t42 -152q0 -70 -25.5 -111.5t-70.5 -41.5h-469q-31 0 -31 -27q0 -74 72.5 -127t148.5 -53q115 0 203 63q37 25 53 25q31 0 54.5 -34t23.5 -67q0 -70 -90 -137q-158 -119 -375 -119t-367.5 143.5 t-150.5 348.5zM166 1171q0 80 160.5 186.5t208.5 106.5q68 0 226.5 -115.5t158.5 -174.5q0 -33 -23 -55.5t-53 -22.5q-51 0 -151.5 53t-153.5 53q-43 0 -80 -18q-10 -4 -46 -25.5t-57.5 -32t-52.5 -21.5t-55 -11q-37 0 -59.5 21.5t-22.5 55.5zM455 690q0 -31 14 -43t49 -12 h103q63 0 63 59q0 53 -30.5 88t-80.5 35q-47 0 -82.5 -38t-35.5 -89z" />
<glyph unicode="&#xeb;" horiz-adv-x="1085" d="M-8 1239q0 82 78 125t223 43q96 0 151.5 -33t55.5 -90q0 -70 -92.5 -118t-229.5 -48q-80 0 -133 35t-53 86zM35 465q0 223 155.5 377.5t378.5 154.5q203 0 336 -108q70 -55 112 -135t42 -152q0 -70 -25.5 -111.5t-70.5 -41.5h-469q-31 0 -31 -27q0 -74 72.5 -127 t148.5 -53q115 0 203 63q37 25 53 25q31 0 54.5 -34t23.5 -67q0 -70 -90 -137q-158 -119 -375 -119t-367.5 143.5t-150.5 348.5zM455 690q0 -31 14 -43t49 -12h103q63 0 63 59q0 53 -30.5 88t-80.5 35q-47 0 -82.5 -38t-35.5 -89zM584 1239q0 82 78 125t223 43 q96 0 151.5 -33t55.5 -90q0 -70 -92.5 -118t-229.5 -48q-80 0 -133 35t-53 86z" />
<glyph unicode="&#xec;" horiz-adv-x="729" d="M20 791q0 53 60.5 86.5t230.5 74.5q135 35 226 37q57 0 57 -61v-582q0 -68 13.5 -99.5t49.5 -60.5q53 -39 54 -77q0 -129 -324 -129q-188 0 -275 27.5t-87 88.5q0 23 12 42.5t21.5 26.5t33.5 25q57 41 58 228q0 43 -5 133q-2 86 -7 106.5t-23 36.5q-10 8 -31 18.5 t-32 18.5t-21.5 23.5t-10.5 36.5zM49 1317q0 47 66.5 80t165.5 33q78 0 124 -16.5t46 -43.5q0 -8 -8.5 -21.5t-8.5 -21.5q0 -12 8.5 -23.5t15.5 -17.5t23.5 -16.5t18.5 -12.5q25 -18 34 -25t23 -26.5t14 -40.5q0 -74 -104 -73q-182 0 -334 116q-84 68 -84 109z" />
<glyph unicode="&#xed;" horiz-adv-x="729" d="M20 791q0 53 60.5 86.5t230.5 74.5q135 35 226 37q57 0 57 -61v-582q0 -68 13.5 -99.5t49.5 -60.5q53 -39 54 -77q0 -129 -324 -129q-188 0 -275 27.5t-87 88.5q0 23 12 42.5t21.5 26.5t33.5 25q57 41 58 228q0 43 -5 133q-2 86 -7 106.5t-23 36.5q-10 8 -31 18.5 t-32 18.5t-21.5 23.5t-10.5 36.5zM104 1165q1 39 52 78l61 45q25 14 25 39q0 8 -8.5 21.5t-8.5 21.5q0 27 45 43.5t117 16.5q104 0 172 -32t68 -81q0 -43 -86 -109q-150 -117 -334 -116q-102 0 -103 73z" />
<glyph unicode="&#xee;" horiz-adv-x="729" d="M-41 1169q0 80 161 186.5t208 106.5q68 0 226.5 -115.5t158.5 -175.5q0 -33 -22.5 -55t-53.5 -22q-51 0 -151.5 53t-153.5 53q-43 0 -80 -18q-10 -4 -46 -25.5t-57.5 -32t-52 -21.5t-55.5 -11q-37 0 -59.5 21.5t-22.5 55.5zM20 791q0 53 60.5 86.5t230.5 74.5 q135 35 226 37q57 0 57 -61v-582q0 -68 13.5 -99.5t49.5 -60.5q53 -39 54 -77q0 -129 -324 -129q-188 0 -275 27.5t-87 88.5q0 23 12 42.5t21.5 26.5t33.5 25q57 41 58 228q0 43 -5 133q-2 86 -7 106.5t-23 36.5q-10 8 -31 18.5t-32 18.5t-21.5 23.5t-10.5 36.5z" />
<glyph unicode="&#xef;" horiz-adv-x="729" d="M-186 1253q0 82 78 125t223 43q96 0 151.5 -32.5t55.5 -90.5q0 -70 -92.5 -117.5t-229.5 -47.5q-80 0 -133 34.5t-53 85.5zM20 791q0 53 60.5 86.5t230.5 74.5q135 35 226 37q57 0 57 -61v-582q0 -68 13.5 -99.5t49.5 -60.5q53 -39 54 -77q0 -129 -324 -129 q-188 0 -275 27.5t-87 88.5q0 23 12 42.5t21.5 26.5t33.5 25q57 41 58 228q0 43 -5 133q-2 86 -7 106.5t-23 36.5q-10 8 -31 18.5t-32 18.5t-21.5 23.5t-10.5 36.5zM406 1253q0 82 78 125t223 43q96 0 151 -32.5t55 -90.5q0 -70 -92 -117.5t-229 -47.5q-80 0 -133 34.5 t-53 85.5z" />
<glyph unicode="&#xf0;" horiz-adv-x="1232" d="M33 438q0 203 120.5 346.5t329.5 190.5q47 10 57.5 15t10.5 18q0 25 -45 73.5t-70 69.5q-27 18 -37 18q-6 0 -18 -7t-29.5 -19.5t-33 -24.5t-33 -26.5t-25.5 -20.5q-4 -4 -28.5 -24.5t-43 -30.5t-36.5 -10q-27 0 -45.5 17t-18.5 44q0 25 18.5 45.5t50 41t42.5 30.5 q4 2 14 9t15 11t12.5 10.5t11.5 13.5t4 15q0 16 -156 60q-63 14 -63 59q0 66 117 65q84 0 202 -20q92 -18 95 -18q12 0 40.5 18t74.5 54t48 38q6 4 44 33t65 29q23 0 41 -19.5t18 -42t-14 -40t-47 -40t-37 -24.5q-53 -39 -53 -56q0 -12 18 -20q248 -98 398.5 -326.5 t150.5 -496.5q0 -219 -187.5 -371t-459.5 -152q-219 0 -368.5 133.5t-149.5 331.5zM479 649q0 -61 23.5 -166.5t52.5 -183.5q33 -82 100 -82q90 0 90 131q0 156 -75 346q-29 72 -101 72q-39 0 -64.5 -33t-25.5 -84z" />
<glyph unicode="&#xf1;" horiz-adv-x="1374" d="M20 776q0 74 197 143.5t291 69.5q29 0 49.5 -21.5t20.5 -52.5q0 -12 -3 -24q0 -63 39 -64q14 0 38 26t51.5 56.5t85 56t126.5 25.5q127 0 218 -67q63 -49 87.5 -109.5t30.5 -187.5l15 -351q0 -53 30 -88q4 -4 18.5 -18t20.5 -21.5t12.5 -21.5t6.5 -29q0 -68 -80 -93 t-291 -25q-127 0 -185.5 24.5t-58.5 79.5q0 12 5.5 24.5t9.5 17.5t15 18.5t15 17.5q41 41 41 274q0 141 -29.5 201.5t-101.5 60.5q-66 0 -90 -43t-24 -155v-199q0 -82 28 -123q39 -59 39 -82q0 -117 -336 -116q-279 0 -278 110q0 29 7 40t42 36q31 23 42 105.5t11 299.5 q0 59 -18.5 93t-39 42.5t-39 25t-18.5 44.5zM229 1210q0 84 62.5 144.5t149 60.5t225.5 -49q8 -4 54 -22.5t77.5 -27.5t56.5 -9q14 0 21.5 28.5t29 56t68.5 27.5q78 0 124 -29.5t46 -78.5q0 -80 -62.5 -138.5t-148.5 -58.5q-70 0 -183.5 42t-154.5 50q-10 2 -29.5 10.5 t-37 12.5t-31.5 4q-23 0 -23 -25v-20q0 -74 -94 -74q-150 0 -150 96z" />
<glyph unicode="&#xf2;" horiz-adv-x="1232" d="M33 438q0 242 167 395.5t435 163.5q227 0 395 -137t168 -360.5t-186.5 -375t-458.5 -151.5q-223 0 -371.5 132.5t-148.5 332.5zM354 1319q0 47 66.5 80t165.5 33q78 0 124 -16.5t46 -43.5q0 -8 -8.5 -21.5t-8.5 -21.5q0 -12 8.5 -23.5t15.5 -17.5t23.5 -16t18.5 -12 q25 -18 34 -25.5t23.5 -27t14.5 -40.5q0 -74 -105 -73q-182 0 -334 116q-84 68 -84 109zM479 647q0 -59 22.5 -163.5t53.5 -182.5q31 -82 100 -82q90 0 90 125q0 164 -77 352q-31 70 -99 70q-41 -4 -65.5 -36t-24.5 -83z" />
<glyph unicode="&#xf3;" horiz-adv-x="1232" d="M33 438q0 242 167 395.5t435 163.5q227 0 395 -137t168 -360.5t-186.5 -375t-458.5 -151.5q-223 0 -371.5 132.5t-148.5 332.5zM354 1167q1 39 52 78l61 45q25 14 25 39q0 8 -8.5 21.5t-8.5 21.5q0 27 45 43.5t117 16.5q104 0 172 -32t68 -81q0 -43 -86 -109 q-150 -117 -334 -116q-102 0 -103 73zM479 647q0 -59 22.5 -163.5t53.5 -182.5q31 -82 100 -82q90 0 90 125q0 164 -77 352q-31 70 -99 70q-41 -4 -65.5 -36t-24.5 -83z" />
<glyph unicode="&#xf4;" horiz-adv-x="1232" d="M33 438q0 242 167 395.5t435 163.5q227 0 395 -137t168 -360.5t-186.5 -375t-458.5 -151.5q-223 0 -371.5 132.5t-148.5 332.5zM238 1171q0 80 160.5 186.5t207.5 106.5q68 0 226.5 -115.5t158.5 -174.5q0 -33 -22.5 -55.5t-53.5 -22.5q-51 0 -151 53t-154 53 q-43 0 -80 -18q-10 -4 -45.5 -25.5t-57 -32t-52.5 -21.5t-56 -11q-37 0 -59 21.5t-22 55.5zM479 647q0 -59 22.5 -163.5t53.5 -182.5q31 -82 100 -82q90 0 90 125q0 164 -77 352q-31 70 -99 70q-41 -4 -65.5 -36t-24.5 -83z" />
<glyph unicode="&#xf5;" horiz-adv-x="1232" d="M33 438q0 242 167 395.5t435 163.5q227 0 395 -137t168 -360.5t-186.5 -375t-458.5 -151.5q-223 0 -371.5 132.5t-148.5 332.5zM158 1210q0 84 62.5 144.5t148.5 60.5t225 -49q8 -4 54 -22.5t78 -27.5t56 -9q14 0 21.5 28.5t29 56t68.5 27.5q78 0 124 -29.5t46 -78.5 q0 -80 -62.5 -138.5t-148.5 -58.5q-70 0 -183.5 42t-154.5 50q-10 2 -29.5 10.5t-37 12.5t-31.5 4q-23 0 -23 -25v-20q0 -74 -94 -74q-150 0 -149 96zM479 647q0 -59 22.5 -163.5t53.5 -182.5q31 -82 100 -82q90 0 90 125q0 164 -77 352q-31 70 -99 70q-41 -4 -65.5 -36 t-24.5 -83z" />
<glyph unicode="&#xf6;" horiz-adv-x="1232" d="M33 438q0 242 167 395.5t435 163.5q227 0 395 -137t168 -360.5t-186.5 -375t-458.5 -151.5q-223 0 -371.5 132.5t-148.5 332.5zM63 1239q0 82 78.5 125t223.5 43q96 0 151 -33t55 -90q0 -70 -92 -118t-229 -48q-80 0 -133.5 35t-53.5 86zM479 647q0 -59 22.5 -163.5 t53.5 -182.5q31 -82 100 -82q90 0 90 125q0 164 -77 352q-31 70 -99 70q-41 -4 -65.5 -36t-24.5 -83zM655 1239q0 82 78 125t223 43q96 0 151.5 -33t55.5 -90q0 -70 -92 -118t-229 -48q-80 0 -133.5 35t-53.5 86z" />
<glyph unicode="&#xf7;" d="M137 522v119q0 35 19.5 48t68.5 13h774q55 0 75 -15t20 -58v-105q0 -35 -17.5 -46t-72.5 -11h-795q-72 0 -72 55zM465 221q0 66 43 112t102 46q70 0 113 -43t43 -111q0 -61 -44 -105t-108 -44q-59 0 -104 44t-45 101zM465 934q0 66 43 113t102 47q70 0 113 -43t43 -111 q0 -63 -44 -107.5t-108 -44.5q-59 0 -104 44.5t-45 101.5z" />
<glyph unicode="&#xf8;" horiz-adv-x="1232" d="M-2 92q0 29 49 54.5t49 52.5q0 4 -4 12q0 2 -6 14q-51 92 -51 219q0 248 176 400.5t428 152.5q227 0 358 -108q16 -16 27 -17q12 0 21.5 5.5t32 25t38.5 31.5q14 12 31 12q25 0 43 -23.5t18 -48.5q1 -20 -24 -36l-62 -47q-12 -8 -12 -19q88 -154 88 -278 q0 -221 -186.5 -371t-460.5 -150q-55 0 -112.5 12.5t-101.5 31t-79 36t-55 29.5l-21 12q-23 0 -59.5 -34.5t-63.5 -34.5q-23 0 -42 22.5t-19 44.5zM483 655q0 -33 2 -53q0 -2 1 -18.5t2 -27.5t4.5 -26.5t9.5 -23.5t14 -8q6 0 37 21.5t73 53t46 33.5q18 12 18 27q0 6 -10 35 q-33 98 -109 98q-41 0 -64.5 -29.5t-23.5 -81.5zM543 348q0 -43 37.5 -86t81.5 -43q41 0 63.5 31t22.5 84q0 156 -29 155q-11 0 -29 -14q-4 -2 -23.5 -15.5t-38 -26.5t-40 -29.5t-33.5 -31t-12 -24.5z" />
<glyph unicode="&#xf9;" horiz-adv-x="1388" d="M20 848q0 72 115 100q195 41 391 41q59 0 60 -49v-543q0 -174 119 -174q68 0 91 56.5t23 220.5q0 172 -9 216t-54 66q-57 29 -58 74q0 66 99 88q190 45 368 45q100 0 101 -108q-2 -31 -2 -90l-2 -70v-440q0 -33 53 -65t53 -69q0 -68 -136 -117.5t-319 -49.5 q-47 0 -68.5 18t-20.5 39.5t-6 40t-30 18.5q-12 0 -58 -29.5t-113.5 -58t-131.5 -28.5q-100 0 -167.5 31.5t-102.5 93t-49 132t-14 169.5q0 25 1 71.5t1 69.5q0 121 -13.5 165t-60.5 68q-39 20 -49.5 32.5t-10.5 35.5zM434 1317q0 47 66.5 80t165.5 33q78 0 124 -16.5 t46 -43.5q0 -8 -8.5 -21.5t-8.5 -21.5q0 -12 8.5 -23.5t15.5 -17.5t23.5 -16.5t18.5 -12.5q25 -18 34 -25t23 -26.5t14 -40.5q0 -74 -104 -73q-182 0 -334 116q-84 68 -84 109z" />
<glyph unicode="&#xfa;" horiz-adv-x="1388" d="M20 848q0 72 115 100q195 41 391 41q59 0 60 -49v-543q0 -174 119 -174q68 0 91 56.5t23 220.5q0 172 -9 216t-54 66q-57 29 -58 74q0 66 99 88q190 45 368 45q100 0 101 -108q-2 -31 -2 -90l-2 -70v-440q0 -33 53 -65t53 -69q0 -68 -136 -117.5t-319 -49.5 q-47 0 -68.5 18t-20.5 39.5t-6 40t-30 18.5q-12 0 -58 -29.5t-113.5 -58t-131.5 -28.5q-100 0 -167.5 31.5t-102.5 93t-49 132t-14 169.5q0 25 1 71.5t1 69.5q0 121 -13.5 165t-60.5 68q-39 20 -49.5 32.5t-10.5 35.5zM434 1165q0 39 51 78l62 45q25 14 24 39q0 8 -8 21.5 t-8 21.5q0 27 45 43.5t117 16.5q104 0 171.5 -32t67.5 -81q0 -43 -86 -109q-150 -117 -333 -116q-102 0 -103 73z" />
<glyph unicode="&#xfb;" horiz-adv-x="1388" d="M20 848q0 72 115 100q195 41 391 41q59 0 60 -49v-543q0 -174 119 -174q68 0 91 56.5t23 220.5q0 172 -9 216t-54 66q-57 29 -58 74q0 66 99 88q190 45 368 45q100 0 101 -108q-2 -31 -2 -90l-2 -70v-440q0 -33 53 -65t53 -69q0 -68 -136 -117.5t-319 -49.5 q-47 0 -68.5 18t-20.5 39.5t-6 40t-30 18.5q-12 0 -58 -29.5t-113.5 -58t-131.5 -28.5q-100 0 -167.5 31.5t-102.5 93t-49 132t-14 169.5q0 25 1 71.5t1 69.5q0 121 -13.5 165t-60.5 68q-39 20 -49.5 32.5t-10.5 35.5zM317 1169q0 80 161 186.5t208 106.5q68 0 226.5 -115.5 t158.5 -175.5q0 -33 -22.5 -55t-53.5 -22q-51 0 -151.5 53t-153.5 53q-43 0 -80 -18q-10 -4 -46 -25.5t-57.5 -32t-52 -21.5t-55.5 -11q-37 0 -59.5 21.5t-22.5 55.5z" />
<glyph unicode="&#xfc;" horiz-adv-x="1388" d="M20 848q0 72 115 100q195 41 391 41q59 0 60 -49v-543q0 -174 119 -174q68 0 91 56.5t23 220.5q0 172 -9 216t-54 66q-57 29 -58 74q0 66 99 88q190 45 368 45q100 0 101 -108q-2 -31 -2 -90l-2 -70v-440q0 -33 53 -65t53 -69q0 -68 -136 -117.5t-319 -49.5 q-47 0 -68.5 18t-20.5 39.5t-6 40t-30 18.5q-12 0 -58 -29.5t-113.5 -58t-131.5 -28.5q-100 0 -167.5 31.5t-102.5 93t-49 132t-14 169.5q0 25 1 71.5t1 69.5q0 121 -13.5 165t-60.5 68q-39 20 -49.5 32.5t-10.5 35.5zM143 1239q0 82 78 125t223 43q96 0 151.5 -33t55.5 -90 q0 -70 -92 -118t-229 -48q-80 0 -133.5 35t-53.5 86zM735 1239q0 82 78 125t223 43q96 0 151.5 -33t55.5 -90q0 -70 -92 -118t-229 -48q-80 0 -133.5 35t-53.5 86z" />
<glyph unicode="&#xfd;" horiz-adv-x="1267" d="M0 846q0 104 229 131q104 12 213 12q252 0 252 -125q0 -20 -22.5 -55t-22.5 -57q0 -39 44 -123t79 -84q41 0 68.5 71.5t27.5 108.5q0 39 -30.5 81t-30.5 71q0 51 66.5 81.5t177.5 30.5q217 0 217 -104q0 -37 -21.5 -57.5t-79.5 -43.5q-51 -18 -87 -75.5t-89 -204.5 l-133 -363q-39 -106 -80 -185t-102.5 -152.5t-149.5 -113.5t-196 -40q-133 0 -219 65.5t-86 167.5q0 76 50 128t122 52q59 0 96 -32.5t48 -70.5t27.5 -70.5t39.5 -32.5q33 0 54 26.5t21 67.5q0 45 -53 158l-240 512q-49 106 -94 129q-31 12 -46 21t-32.5 28.5t-17.5 46.5z M373 1165q0 39 51 78l61 45q25 14 25 39q0 8 -8 21.5t-8 21.5q0 27 45 43.5t116 16.5q104 0 172 -32t68 -81q0 -43 -86 -109q-150 -117 -334 -116q-102 0 -102 73z" />
<glyph unicode="&#xfe;" horiz-adv-x="1361" d="M20 1114q0 72 112 132.5t231.5 87t189.5 26.5q41 0 53 -11.5t12 -52.5v-368q0 -37 25 -37q2 0 50 26.5t118 53t129 26.5q162 0 275.5 -138t113.5 -333q0 -229 -136 -391t-325 -162q-51 0 -124.5 23.5t-86.5 23.5q-29 0 -28 -59q0 -78 51 -113q4 -2 14.5 -9t14.5 -10 l12 -9t12 -11.5t8 -12.5t6.5 -15t2.5 -19q0 -123 -265 -122q-184 0 -320 58t-136 138q0 35 13 48.5t32.5 20.5t40 23.5t36 70.5t17.5 146l4 217v27v369l-4 137q-4 84 -10 105.5t-29 23.5q-35 8 -52.5 14t-37 26.5t-19.5 49.5zM612 338q0 -53 22.5 -77.5t76.5 -24.5 q137 0 137 235q0 111 -39 174.5t-104 63.5q-74 -1 -76 -95z" />
<glyph unicode="&#xff;" horiz-adv-x="1267" d="M0 846q0 104 229 131q104 12 213 12q252 0 252 -125q0 -20 -22.5 -55t-22.5 -57q0 -39 44 -123t79 -84q41 0 68.5 71.5t27.5 108.5q0 39 -30.5 81t-30.5 71q0 51 66.5 81.5t177.5 30.5q217 0 217 -104q0 -37 -21.5 -57.5t-79.5 -43.5q-51 -18 -87 -75.5t-89 -204.5 l-133 -363q-39 -106 -80 -185t-102.5 -152.5t-149.5 -113.5t-196 -40q-133 0 -219 65.5t-86 167.5q0 76 50 128t122 52q59 0 96 -32.5t48 -70.5t27.5 -70.5t39.5 -32.5q33 0 54 26.5t21 67.5q0 45 -53 158l-240 512q-49 106 -94 129q-31 12 -46 21t-32.5 28.5t-17.5 46.5z M82 1237q0 82 78 125t223 43q96 0 151.5 -33t55.5 -90q0 -70 -92 -118t-230 -48q-80 0 -133 35t-53 86zM674 1237q0 82 78 125t223 43q96 0 151.5 -33t55.5 -90q0 -70 -92.5 -118t-229.5 -48q-80 0 -133 35t-53 86z" />
<glyph unicode="&#x152;" horiz-adv-x="2217" d="M47 700q0 289 207 487.5t510 198.5q51 0 157.5 -9t157.5 -9h658q145 0 190 18q55 20 72 21q63 0 114.5 -89t51.5 -202q0 -59 -30 -96t-79 -37q-41 0 -63.5 19.5t-36.5 47t-40 56.5t-95.5 48.5t-180.5 19.5q-102 0 -128.5 -23t-26.5 -113v-161q0 -51 20.5 -65.5 t98.5 -14.5q51 0 72.5 33.5t22.5 72.5t20.5 73t66.5 34q117 0 117 -293q0 -143 -37 -231.5t-97 -88.5q-39 0 -53 33t-14 71t-28.5 70.5t-92.5 32.5q-53 0 -70.5 -27.5t-17.5 -111.5q0 -213 41 -244q25 -23 188 -22q109 0 161 33.5t112 142.5q47 86 112 86q45 0 71 -32 t26 -87q0 -88 -65.5 -228.5t-143.5 -140.5q-20 0 -59.5 11.5t-51.5 13.5t-39 2h-856q-39 0 -116.5 -7t-116.5 -7q-297 0 -503 207.5t-206 506.5zM526 899q0 -70 20.5 -170t58.5 -206.5t103.5 -180.5t143.5 -74t125 57.5t47 153.5q0 74 -20.5 175.5t-58.5 207t-105.5 178 t-147.5 72.5q-74 0 -120 -59.5t-46 -153.5z" />
<glyph unicode="&#x153;" horiz-adv-x="1810" d="M35 453q0 240 173 392t445 152q84 0 162 -22.5t121 -44.5l43 -23q6 0 20 8q123 82 306 82q199 0 339 -118.5t140 -288.5q0 -63 -25.5 -102t-68.5 -39h-467q-35 0 -35 -21q0 -72 69.5 -128t155.5 -56q115 0 211 65q27 18 43 19q20 0 45 -27q33 -47 33 -78q0 -70 -87 -130 t-191.5 -90t-184.5 -30q-33 0 -69.5 5.5t-67.5 14.5t-61.5 19.5t-54 20.5t-41 19t-27.5 14l-11 6q-6 0 -24 -11q-63 -39 -162.5 -63.5t-194.5 -24.5q-240 0 -387 133.5t-147 346.5zM483 653q0 -145 66 -338q33 -96 110 -96q86 0 86 133q0 43 -9 107.5t-26.5 137.5t-53.5 123 t-81 50q-43 0 -67.5 -31.5t-24.5 -85.5zM1186 696q0 -39 13.5 -48t66.5 -9h82q63 0 63 49q0 59 -29.5 95t-79 36t-83 -35.5t-33.5 -87.5z" />
<glyph unicode="&#x178;" horiz-adv-x="1597" d="M0 1255q0 57 54.5 85t183.5 38q92 8 202 8q219 0 310.5 -25.5t91.5 -86.5q0 -25 -27 -59.5t-27 -57.5q0 -37 44.5 -101.5t80.5 -64.5q27 0 80.5 51.5t53.5 98.5q-1 27 -13 41q-45 49 -45 86q0 63 73 90.5t241 27.5q180 0 237 -23.5t57 -94.5q0 -39 -25.5 -59.5 t-86.5 -30.5q-57 -10 -102.5 -46t-149.5 -151q-141 -156 -173 -220.5t-32 -205.5q0 -25 1 -50.5t3 -57t2 -50.5q4 -96 17.5 -128.5t64.5 -57.5q72 -39 72 -92q0 -139 -416 -139q-422 0 -422 137q0 66 76 90q66 25 84 89t18 279q0 90 -14 132.5t-72 117.5q-180 229 -268 295 q-37 29 -65 39q-72 27 -90.5 43.5t-18.5 52.5zM248 1630q0 82 78 125t223 43q96 0 151.5 -32.5t55.5 -90.5q0 -70 -92.5 -118t-229.5 -48q-80 0 -133 35t-53 86zM840 1630q0 82 78 125t223 43q96 0 151.5 -32.5t55.5 -90.5q0 -70 -92.5 -118t-229.5 -48q-80 0 -133 35 t-53 86z" />
<glyph unicode="&#x2c6;" horiz-adv-x="1024" d="M135 1169q0 80 161 186.5t208 106.5q68 0 226.5 -115.5t158.5 -175.5q0 -33 -22.5 -55t-53.5 -22q-51 0 -151.5 53t-153.5 53q-43 0 -80 -18q-10 -4 -46 -25.5t-57.5 -32t-52 -21.5t-55.5 -11q-37 0 -59.5 21.5t-22.5 55.5z" />
<glyph unicode="&#x2dc;" horiz-adv-x="1024" d="M55 1208q0 84 62.5 144.5t149 60.5t225.5 -49q8 -4 54 -22.5t77.5 -27.5t56.5 -9q14 0 21.5 27.5t29 56t68.5 28.5q78 0 124 -29.5t46 -78.5q0 -80 -62.5 -138.5t-148.5 -58.5q-70 0 -183.5 42t-154.5 50q-10 2 -29.5 10.5t-37 12.5t-31.5 4q-23 0 -23 -25v-20 q0 -74 -94 -74q-150 0 -150 96z" />
<glyph unicode="&#x2000;" horiz-adv-x="940" />
<glyph unicode="&#x2001;" horiz-adv-x="1880" />
<glyph unicode="&#x2002;" horiz-adv-x="940" />
<glyph unicode="&#x2003;" horiz-adv-x="1880" />
<glyph unicode="&#x2004;" horiz-adv-x="626" />
<glyph unicode="&#x2005;" horiz-adv-x="470" />
<glyph unicode="&#x2006;" horiz-adv-x="313" />
<glyph unicode="&#x2007;" horiz-adv-x="313" />
<glyph unicode="&#x2008;" horiz-adv-x="235" />
<glyph unicode="&#x2009;" horiz-adv-x="376" />
<glyph unicode="&#x200a;" horiz-adv-x="104" />
<glyph unicode="&#x2010;" horiz-adv-x="581" d="M0 397q0 84 51 200t123 116q39 0 119 -8.5t121 -8.5q23 0 67.5 5.5t67.5 5.5q33 0 33 -45q0 -72 -45 -196t-105 -124q-43 0 -125 10t-125 10q-23 0 -69.5 -3t-69.5 -3q-43 0 -43 41z" />
<glyph unicode="&#x2011;" horiz-adv-x="581" d="M0 397q0 84 51 200t123 116q39 0 119 -8.5t121 -8.5q23 0 67.5 5.5t67.5 5.5q33 0 33 -45q0 -72 -45 -196t-105 -124q-43 0 -125 10t-125 10q-23 0 -69.5 -3t-69.5 -3q-43 0 -43 41z" />
<glyph unicode="&#x2012;" horiz-adv-x="581" d="M0 397q0 84 51 200t123 116q39 0 119 -8.5t121 -8.5q23 0 67.5 5.5t67.5 5.5q33 0 33 -45q0 -72 -45 -196t-105 -124q-43 0 -125 10t-125 10q-23 0 -69.5 -3t-69.5 -3q-43 0 -43 41z" />
<glyph unicode="&#x2013;" horiz-adv-x="1222" d="M41 414q0 27 57 186q45 125 125 125q47 0 141.5 -8t141.5 -8h442q31 0 89.5 4t86.5 4q23 0 40.5 -16.5t17.5 -38.5q0 -68 -49.5 -192t-110.5 -124q-43 0 -123 9.5t-111 11.5h-356q-55 0 -162.5 -5.5t-158.5 -5.5q-31 0 -50.5 16.5t-19.5 41.5z" />
<glyph unicode="&#x2014;" horiz-adv-x="1830" d="M41 414q0 27 57 186q45 125 125 125q47 0 141.5 -8t141.5 -8h1050q31 0 89.5 4t87.5 4q23 0 40 -16.5t17 -38.5q0 -68 -49 -192t-111 -124q-43 0 -121.5 9.5t-109.5 11.5h-967q-55 0 -162.5 -5.5t-158.5 -5.5q-31 0 -50.5 16.5t-19.5 41.5z" />
<glyph unicode="&#x2018;" horiz-adv-x="614" d="M86 864q0 252 231 473q58 54 103 56q4 2 10 2q39 0 67.5 -19.5t28.5 -44.5q0 -10 -33.5 -44t-67.5 -86t-34 -105q0 -20 23.5 -46t51.5 -49.5t51.5 -67.5t23.5 -97q0 -100 -63.5 -165t-160 -65t-164 75t-67.5 183z" />
<glyph unicode="&#x2019;" horiz-adv-x="614" d="M74 1163q0 98 63.5 164t159.5 66q98 0 164.5 -75t66.5 -183q0 -254 -231 -473q-53 -52 -102 -58q-37 0 -71 15.5t-34 48.5q0 16 33 51t66.5 85t33.5 99q0 20 -23.5 45t-51 48.5t-51 68.5t-23.5 98z" />
<glyph unicode="&#x201a;" horiz-adv-x="614" d="M57 225q0 94 69 164t161 70q113 0 186.5 -92.5t73.5 -235.5q0 -76 -31 -186.5t-97.5 -207.5t-146.5 -97q-37 0 -66.5 20.5t-29.5 54.5q0 20 47 100.5t47 125.5q1 37 -32 49q-180 76 -181 235z" />
<glyph unicode="&#x201c;" horiz-adv-x="1144" d="M86 864q0 252 231 473q58 54 103 56q4 2 10 2q39 0 67.5 -19.5t28.5 -44.5q0 -10 -33.5 -44t-67.5 -86t-34 -105q0 -20 23.5 -46t51.5 -49.5t51.5 -67.5t23.5 -97q0 -100 -63.5 -165t-160 -65t-164 75t-67.5 183zM616 864q0 252 232 473q57 54 102 56q4 2 11 2 q37 0 66.5 -19.5t29.5 -44.5q0 -16 -21 -35q-115 -117 -114 -200q0 -23 36.5 -56.5t74.5 -86t38 -117.5q0 -100 -63.5 -165t-159.5 -65t-164 75t-68 183z" />
<glyph unicode="&#x201d;" horiz-adv-x="1144" d="M74 1163q0 98 63.5 164t159.5 66q98 0 164.5 -75t66.5 -183q0 -254 -231 -473q-53 -52 -102 -58q-37 0 -71 15.5t-34 48.5q0 16 33 51t66.5 85t33.5 99q0 20 -23.5 45t-51 48.5t-51 68.5t-23.5 98zM604 1163q0 98 63.5 164t159.5 66q98 0 165 -75t67 -183 q0 -254 -232 -473q-53 -52 -102 -58q-37 0 -70.5 15.5t-33.5 48.5q0 16 33.5 52t66.5 85t33 98q0 29 -33 55q-117 88 -117 205z" />
<glyph unicode="&#x201e;" horiz-adv-x="1144" d="M74 199q0 98 63.5 163.5t159.5 65.5q98 0 164.5 -74.5t66.5 -183.5q0 -254 -231 -473q-53 -51 -102 -57q-37 0 -71 15t-34 48q0 16 33 51t66.5 85t33.5 100q0 20 -23.5 44.5t-51 48t-51 68.5t-23.5 99zM604 199q0 98 63.5 163.5t159.5 65.5q98 0 165 -74.5t67 -183.5 q0 -254 -232 -473q-53 -51 -102 -57q-37 0 -70.5 15t-33.5 48q0 16 33.5 52t66.5 85t33 99q0 29 -33 55q-117 88 -117 205z" />
<glyph unicode="&#x2022;" d="M406 586q0 82 57 139t139 57q84 0 142.5 -57t58.5 -139t-58.5 -139.5t-142.5 -57.5q-82 0 -139 57.5t-57 139.5z" />
<glyph unicode="&#x2026;" horiz-adv-x="1843" d="M72 209q0 98 69.5 167.5t165.5 69.5t166 -69.5t70 -167.5q0 -96 -70 -166t-166 -70t-165.5 70t-69.5 166zM686 209q0 98 69.5 167.5t166 69.5t166 -69.5t69.5 -167.5q0 -96 -69.5 -166t-166 -70t-166 70t-69.5 166zM1300 209q0 98 70 167.5t166 69.5t166 -69.5t70 -167.5 q0 -96 -70 -166t-166 -70t-166 70t-70 166z" />
<glyph unicode="&#x202f;" horiz-adv-x="376" />
<glyph unicode="&#x2039;" horiz-adv-x="569" d="M27 528q0 59 84 168t183 193t144 84q39 0 69 -24.5t30 -59.5q0 -49 -89.5 -167t-89.5 -187q0 -51 80 -170q4 -6 30 -41t37 -54.5t24.5 -49.5t13.5 -50q0 -33 -28 -58.5t-58 -25.5q-80 0 -255 177t-175 265z" />
<glyph unicode="&#x203a;" horiz-adv-x="571" d="M29 170q0 34 18 63q6 10 34 49.5t46 66t40.5 64.5t34 68.5t11.5 53.5q0 66 -89 179t-89 171v2q0 35 28.5 60.5t67.5 25.5q74 0 244 -176t170 -262q0 -90 -173 -269.5t-257 -179.5q-31 0 -58.5 25.5t-27.5 58.5z" />
<glyph unicode="&#x205f;" horiz-adv-x="470" />
<glyph unicode="&#x2122;" horiz-adv-x="1947" d="M0 1153q0 72 50 149.5t102 77.5q20 0 63 -7t66 -7h315q37 0 94 14q20 4 31 4q55 0 98 -79.5t43 -143.5q0 -41 -24.5 -65.5t-65.5 -24.5q-61 0 -100 76q-23 39 -33 49t-29 10q-39 0 -39 -80v-335q0 -53 10.5 -76t41.5 -35q33 -14 44 -26.5t11 -32.5q0 -86 -238 -86 q-281 0 -280 90q0 33 33 43q16 6 27 12t19.5 11t14.5 15.5t9 14.5t5 19.5t2 20.5t1 24.5t1 27.5q10 221 11 264q0 78 -7.5 103.5t-30 25.5t-44 -33.5t-51 -68.5t-74.5 -35q-33 0 -54.5 23.5t-21.5 60.5zM877 600q0 6 2 12t5 10.5t9 8.5l9 6t11.5 5t10.5 5q31 14 42 109.5 t11 326.5q0 63 -10.5 100.5t-23.5 48.5t-27.5 16t-24.5 15.5t-10 32.5q0 39 53 60.5t145 21.5q86 0 113 -11t51 -58l125 -232q20 -37 27.5 -45t21.5 -8q23 0 45 43l84 164q43 96 79 121.5t128 25.5q174 0 174 -75q0 -31 -33 -56q-29 -20 -39 -75.5t-10 -184.5 q0 -297 41 -323q45 -31 45 -56q0 -74 -211 -73q-209 0 -209 67q0 25 43 60q27 23 27 172q0 47 -4 62t-18 15q-16 0 -31.5 -22t-48.5 -94l-13 -27q-10 -27 -24.5 -58.5t-30.5 -65.5t-31.5 -56.5t-25.5 -22.5q-31 0 -94 146q-4 8 -16.5 38.5t-25 57.5t-25.5 55.5t-26.5 46 t-21.5 17.5q-14 0 -19.5 -30t-5.5 -130q0 -66 6.5 -86.5t26.5 -30.5q2 -2 10 -6t10.5 -6t8.5 -6t8 -8.5t4 -10.5t2 -12q0 -66 -172 -65q-147 0 -147 65z" />
<glyph unicode="&#xe000;" horiz-adv-x="993" d="M0 0v993h993v-993h-993z" />
<glyph unicode="&#xfb01;" horiz-adv-x="1449" d="M14 623v2l9 125q2 27 17 39t32.5 11t32 6t14.5 28q0 8 -37 89t-37 144q0 92 47 157.5t128 96.5t159 43t164 12q297 0 530.5 -82t233.5 -184q0 -80 -108.5 -136t-260.5 -56q-70 0 -110 17t-50 45t-24.5 58.5t-31.5 58t-74.5 45t-149.5 17.5q-143 0 -144 -80q0 -47 34 -84 t75 -57t81 -51t50 -66q8 -12 33 -12h14q57 0 57 -39v-28.5t-1 -44t-5 -43t-12 -39t-21 -19.5q-27 -8 -37 -34.5t-10 -92.5v-168q0 -82 29 -123q43 -57 43 -82q0 -117 -324 -116q-342 0 -342 137q0 39 16.5 54t40 22.5t47 28t40 90t16.5 188.5q0 47 -18.5 69.5t-65.5 22.5 q-51 0 -65.5 5t-14.5 26zM741 682q0 51 60.5 85t230.5 77q135 33 225 37q60 -1 60 -62v-473q0 -70 12 -100.5t49 -59.5q33 -23 43.5 -38t10.5 -39q0 -70 -87.5 -99.5t-283.5 -29.5q-158 0 -219.5 23.5t-61.5 80.5q0 31 47 78q39 41 39 309q0 61 -19.5 94t-43 40t-43 24.5 t-19.5 52.5z" />
<glyph unicode="&#xfb02;" horiz-adv-x="1439" d="M12 621v2l8 127q2 27 17.5 38t33 10t32 7t14.5 29q0 8 -37 89t-37 138q0 135 115.5 225t287.5 90q93 0 238 -55q12 -4 38 -17.5t47.5 -20.5t39.5 -7q20 0 180 45t256 45q82 0 82 -98q0 -72 -13.5 -231.5t-13.5 -243.5v-320v-160q0 -74 11.5 -100.5t46.5 -42.5 q37 -14 49 -28.5t12 -41.5q0 -70 -72.5 -95t-263.5 -25q-176 0 -239.5 21.5t-63.5 82.5q0 27 45 76q43 45 43 422q0 246 -9 315.5t-44 97.5q-76 63 -183.5 111.5t-178.5 48.5q-100 0 -101 -80q0 -53 48.5 -92t108.5 -76t79 -71l5 -17.5t8 -6.5t24 -3h96q57 0 57 -41l-8 -119 q-4 -35 -12 -45t-39 -10q-6 0 -22.5 1t-22.5 1q-35 0 -49.5 -27.5t-14.5 -99.5v-168q0 -82 29 -123q43 -57 43 -84q0 -115 -324 -114q-342 0 -342 137q0 39 16.5 53t40 22.5t47 29t40 89t16.5 187.5q0 94 -84 94q-51 0 -65.5 5t-14.5 24z" />
</font>
</defs>
</svg>
